<svg width="165" height="125" viewBox="0 0 165 125" fill="none" xmlns="http://www.w3.org/2000/svg">
<g clip-path="url(#clip0)">
<path opacity="0.1" d="M101.423 14.0323C94.3562 18.98 85.1906 18.6598 77.1584 16.0856C69.1263 13.5115 61.7489 8.92831 53.922 5.67072C47.4 2.95012 40.5284 1.15859 33.5083 0.348548C23.5349 -0.79248 12.3967 0.597435 5.4472 8.59603C-2.29147 17.5029 -1.69729 33.5685 6.67322 41.7457C10.9306 45.9048 16.5056 47.9458 21.3675 51.1933C26.2294 54.4408 30.7299 59.8326 30.3158 66.1006C29.9325 71.9032 25.4761 76.3556 20.8644 79.1491C17.3 81.3084 12.9096 83.6664 12.48 88.1382C12.0643 92.4653 15.7554 95.8558 19.2802 97.784C30.7793 104.075 44.9468 104.014 56.4016 97.6255C60.4887 95.346 64.2454 92.3153 68.5314 90.5387C79.7841 85.8746 92.1839 90.5698 104.099 92.2866C114.224 93.7367 124.543 92.9856 134.351 90.0845C140.252 88.3415 146.175 85.6769 150.321 80.713C153.31 77.1335 155.172 72.6037 156.921 68.13C158.785 63.3593 160.577 58.555 162.297 53.7171C163.329 50.813 164.345 47.8524 164.612 44.7456C165.095 39.1146 163.06 33.5493 160.288 28.7971C153.708 17.515 142.625 9.58173 130.628 7.56641C118.632 5.55109 105.921 9.48708 96.6115 18.0998" fill="white"/>
<path d="M138.751 82.2063L138.325 81.96C138.723 81.2716 137.654 78.3412 136.772 76.8656C136.16 75.8419 135.776 74.9111 135.598 74.0202C135.315 72.6018 135.584 71.3719 136.398 70.3648C138.086 68.2755 138.071 64.2873 138.071 64.2473L138.563 64.2429C138.564 64.4135 138.58 68.4465 136.78 70.674C135.584 72.1546 135.724 74.1528 137.194 76.6132C137.887 77.7726 139.368 81.1387 138.751 82.2063Z" fill="#D4D5E0"/>
<path d="M144.14 60.0034C144.252 56.0076 141.624 52.6925 138.271 52.5988C134.917 52.5051 132.109 55.6684 131.997 59.6642C131.889 63.5438 134.363 66.7816 137.576 67.0523C137.519 67.4567 137.346 67.8361 137.078 68.1447C136.591 68.6422 138.61 68.1875 138.61 68.1875C138.477 67.8246 138.404 67.4426 138.393 67.0562C141.509 66.8256 144.034 63.7882 144.14 60.0034Z" fill="white"/>
<path opacity="0.2" d="M133.765 62.6711C133.268 61.1506 133.726 59.6238 134.787 59.1654C134.738 59.1766 134.689 59.1898 134.641 59.2056C133.48 59.5848 132.959 61.1785 133.477 62.7653C133.98 64.3059 135.278 65.2735 136.416 64.9814C136.439 65.1021 134.267 64.2092 133.765 62.6711Z" fill="white"/>
<path d="M141.271 87.7426L141.763 87.7633C141.796 86.9688 144.27 85.0697 145.807 84.298C146.873 83.7626 147.696 83.1834 148.324 82.5271C149.324 81.4821 149.757 80.3001 149.611 79.0136C149.309 76.3449 151.461 72.9875 151.483 72.954L151.07 72.6862C150.978 72.8293 148.8 76.2239 149.123 79.0692C149.337 80.9604 148.147 82.5717 145.586 83.8584C144.379 84.4647 141.323 86.5103 141.271 87.7426Z" fill="#D4D5E0"/>
<path d="M148.64 66.1159C150.69 62.6844 154.687 61.2974 157.566 63.018C160.446 64.7385 161.118 68.9151 159.068 72.3466C157.077 75.6783 153.252 77.0824 150.396 75.5864C150.227 75.9584 150.169 76.3713 150.229 76.7754C150.373 77.4566 148.914 75.9892 148.914 75.9892C149.221 75.7544 149.488 75.4715 149.704 75.1515C147.199 73.2845 146.698 69.3662 148.64 66.1159Z" fill="white"/>
<path opacity="0.2" d="M155.962 73.9348C157.197 72.9183 157.63 71.3843 156.981 70.4282C157.017 70.4639 157.051 70.5013 157.083 70.5406C157.859 71.4836 157.444 73.108 156.155 74.1688C154.903 75.1988 153.289 75.3186 152.486 74.4615C152.401 74.551 154.713 74.963 155.962 73.9348Z" fill="white"/>
<path d="M53.8874 107.573L53.3959 107.594C53.3624 106.799 50.888 104.9 49.3517 104.128C48.2859 103.593 47.4624 103.014 46.8343 102.357C45.8341 101.313 45.4009 100.13 45.547 98.844C45.8499 96.1753 43.6971 92.8179 43.6753 92.7844L44.088 92.5166C44.1809 92.6597 46.3587 96.0543 46.0358 98.8995C45.8212 100.791 47.0111 102.402 49.5725 103.689C50.7796 104.295 53.8355 106.341 53.8874 107.573Z" fill="#D4D5E0"/>
<path d="M46.5184 85.9462C44.4681 82.5147 40.4716 81.1277 37.592 82.8483C34.7124 84.5689 34.0401 88.7454 36.0904 92.1769C38.0811 95.5086 41.9065 96.9127 44.7629 95.4167C44.9316 95.7888 44.9894 96.2016 44.9292 96.6057C44.7851 97.2869 46.2449 95.8195 46.2449 95.8195C45.9379 95.5847 45.6708 95.3018 45.4541 94.9818C47.9595 93.1149 48.4605 89.1965 46.5184 85.9462Z" fill="white"/>
<path opacity="0.2" d="M39.196 93.7652C37.9609 92.7487 37.5279 91.2147 38.1769 90.2586C38.1414 90.2943 38.1074 90.3317 38.075 90.3711C37.2988 91.3141 37.7145 92.9385 39.0033 93.9993C40.2547 95.0292 41.8691 95.149 42.6723 94.292C42.7566 94.3814 40.4453 94.7934 39.196 93.7652Z" fill="white"/>
<path d="M70.0823 55.9314L69.5907 55.9522C69.5572 55.1576 67.0828 53.2585 65.5465 52.4868C64.4807 51.9515 63.6573 51.3722 63.0291 50.7159C62.0289 49.671 61.5958 48.4889 61.7418 47.2025C62.0447 44.5337 59.8919 41.1764 59.8701 41.1428L60.2829 40.8751C60.3757 41.0182 62.5536 44.4128 62.2306 47.258C62.016 49.1492 63.2059 50.7605 65.7674 52.0472C66.9744 52.6535 70.0303 54.6992 70.0823 55.9314Z" fill="#D4D5E0"/>
<path d="M62.7137 34.3047C60.6634 30.8732 56.667 29.4863 53.7873 31.2068C50.9077 32.9274 50.2354 37.1039 52.2857 40.5354C54.2765 43.8672 58.1018 45.2713 60.9582 43.7752C61.1269 44.1473 61.1847 44.5601 61.1245 44.9642C60.9804 45.6454 62.4402 44.178 62.4402 44.178C62.1332 43.9432 61.8661 43.6603 61.6494 43.3403C64.1548 41.4734 64.6558 37.555 62.7137 34.3047Z" fill="white"/>
<path opacity="0.2" d="M55.3918 42.1236C54.1567 41.1071 53.7237 39.5731 54.3727 38.617C54.3372 38.6527 54.3032 38.6901 54.2708 38.7295C53.4946 39.6725 53.9103 41.2969 55.1991 42.3577C56.4505 43.3876 58.0649 43.5074 58.8682 42.6504C58.9524 42.7398 56.6411 43.1518 55.3918 42.1236Z" fill="white"/>
<path d="M64.4289 77.7798L63.9374 77.8006C63.9039 77.006 61.4295 75.1069 59.8932 74.3352C58.8274 73.7999 58.0039 73.2206 57.3758 72.5643C56.3756 71.5194 55.9424 70.3373 56.0885 69.0509C56.3914 66.3821 54.2386 63.0248 54.2168 62.9912L54.6295 62.7234C54.7224 62.8666 56.9002 66.2611 56.5773 69.1064C56.3627 70.9976 57.5526 72.6089 60.1141 73.8956C61.3211 74.5019 64.377 76.5476 64.4289 77.7798Z" fill="#D4D5E0"/>
<path d="M57.0609 56.153C55.0106 52.7216 51.0141 51.3346 48.1345 53.0551C45.2549 54.7757 44.5826 58.9523 46.6329 62.3837C48.6236 65.7155 52.4489 67.1196 55.3054 65.6235C55.4741 65.9956 55.5318 66.4085 55.4716 66.8125C55.3276 67.4938 56.7874 66.0264 56.7874 66.0264C56.4804 65.7916 56.2133 65.5087 55.9966 65.1886C58.5019 63.3217 59.0029 59.4033 57.0609 56.153Z" fill="white"/>
<path opacity="0.2" d="M49.7384 63.972C48.5034 62.9555 48.0703 61.4215 48.7193 60.4654C48.6839 60.5011 48.6498 60.5385 48.6174 60.5778C47.8413 61.5209 48.2569 63.1453 49.5458 64.2061C50.7972 65.236 52.4116 65.3558 53.2148 64.4988C53.2991 64.5882 50.9878 65.0002 49.7384 63.972Z" fill="white"/>
<path d="M132.256 106.694L131.944 106.314C132.558 105.809 132.588 102.69 132.28 100.999C132.067 99.8252 132.034 98.8189 132.181 97.9223C132.414 96.4948 133.098 95.4378 134.214 94.7808C136.528 93.4178 137.916 89.6786 137.929 89.6411L138.391 89.8098C138.333 89.97 136.931 93.7516 134.463 95.2047C132.823 96.1707 132.252 98.0905 132.764 100.911C133.006 102.24 133.209 105.911 132.256 106.694Z" fill="#D4D5E0"/>
<path d="M145.102 87.8001C146.611 84.0983 145.315 80.0712 142.209 78.8054C139.102 77.5396 135.361 79.5143 133.853 83.2162C132.388 86.8104 133.567 90.711 136.48 92.0934C136.284 92.4519 135.989 92.7463 135.63 92.9413C134.999 93.2359 137.05 93.5196 137.05 93.5196C137.052 93.1331 137.118 92.7496 137.243 92.384C140.242 93.2628 143.673 91.3065 145.102 87.8001Z" fill="white"/>
<path opacity="0.2" d="M134.452 86.6527C134.522 85.0546 135.487 83.7861 136.641 83.7295C136.591 83.7227 136.541 83.718 136.49 83.7158C135.27 83.6629 134.222 84.9719 134.149 86.6396C134.079 88.2588 134.954 89.6206 136.122 89.7469C136.101 89.8681 134.382 88.2692 134.452 86.6527Z" fill="white"/>
<path opacity="0.1" d="M92.5093 111.409C118.03 111.409 138.718 109.872 138.718 107.975C138.718 106.079 118.03 104.541 92.5093 104.541C66.9888 104.541 46.3003 106.079 46.3003 107.975C46.3003 109.872 66.9888 111.409 92.5093 111.409Z" fill="white"/>
<path d="M88.6167 18.5126V23.9104H89.1826V18.2515L88.6167 18.5126Z" fill="#53425A"/>
<path d="M100.196 19.9491V24.9551H100.979L100.805 19.3832L100.196 19.9491Z" fill="#53425A"/>
<path d="M77.9086 20.9067L77.3862 21.4726V26.348H77.9086V20.9067Z" fill="#53425A"/>
<path d="M80.0848 35.2713H76.6895V25.5214H79.3013C79.2742 25.5965 79.2541 25.6739 79.2412 25.7526C79.1393 26.3128 79.1707 27.3693 79.266 28.5798C79.4932 31.4816 80.0848 35.2713 80.0848 35.2713Z" fill="white"/>
<path d="M91.9256 35.2713L87.6592 35.7937V23.0833H90.3585C90.3402 23.227 90.3285 23.3902 90.3219 23.5717C90.3139 24.5308 90.3702 25.4893 90.4904 26.4408C90.5818 27.2687 90.7019 28.1581 90.8338 29.0422C90.9357 29.7278 91.0454 30.4094 91.1538 31.0585C91.5456 33.3869 91.9256 35.2713 91.9256 35.2713Z" fill="white"/>
<path d="M103.418 33.9654L99.2388 34.314V24.128H102.112C102.01 24.3448 101.965 24.7104 101.964 25.1753C101.983 26.0156 102.058 26.8537 102.189 27.684C102.596 30.5374 103.418 33.9654 103.418 33.9654Z" fill="white"/>
<path d="M78.605 11.0254C78.605 11.0254 78.8662 12.0701 76.1238 14.9431C73.3814 17.8161 74.4696 23.6056 77.3862 23.4315C77.3862 23.4315 80.1127 23.8812 81.0935 22.025C81.2975 21.6245 81.3891 21.1761 81.3584 20.7276C81.3278 20.2791 81.1761 19.8473 80.9195 19.4782C80.0182 18.151 78.2799 15.3617 78.605 14.029V11.0254Z" fill="#FFC13D"/>
<path opacity="0.5" d="M78.0534 14.9737C78.0534 14.9737 78.2166 15.6262 76.5037 17.4207C74.7908 19.2152 75.4705 22.8313 77.2921 22.7225C77.2921 22.7225 79.0332 23.0097 79.6277 21.8049C79.7447 21.5572 79.7943 21.2831 79.7713 21.0101C79.7484 20.7372 79.6538 20.4751 79.4971 20.2505C78.9651 19.4667 77.97 17.8727 78.0312 16.9973C78.0407 16.8604 78.0534 16.7238 78.0534 16.5867V14.9737Z" fill="white"/>
<path d="M101.238 9.71515C101.238 9.71515 101.499 10.7599 98.7566 13.6329C96.0142 16.5059 97.1024 22.2954 100.019 22.1212C100.019 22.1212 102.745 22.571 103.726 20.7148C103.93 20.3142 104.022 19.8658 103.991 19.4173C103.961 18.9688 103.809 18.5371 103.552 18.168C102.651 16.8407 100.913 14.0515 101.238 12.7187V9.71515Z" fill="#FFC13D"/>
<path opacity="0.5" d="M100.892 15.9422C100.892 15.9422 101.014 16.4311 99.7308 17.7757C98.4473 19.1203 98.9567 21.8299 100.322 21.7484C100.322 21.7484 101.598 21.9589 102.057 21.0902C102.152 20.9027 102.195 20.6929 102.181 20.483C102.166 20.2731 102.095 20.071 101.975 19.8982C101.553 19.2771 100.74 17.9717 100.892 17.3479V15.9422Z" fill="white"/>
<path d="M89.6908 5.93683C89.6908 5.93683 90.0084 7.20721 86.6736 10.7008C83.3389 14.1943 84.6622 21.2344 88.2087 21.0227C88.2087 21.0227 91.5242 21.5695 92.7168 19.3124C92.9649 18.8253 93.0762 18.2801 93.039 17.7347C93.0017 17.1893 92.8172 16.6643 92.5052 16.2155C91.4093 14.6016 89.2955 11.2098 89.6908 9.58919V5.93683Z" fill="#FFC13D"/>
<path opacity="0.5" d="M89.3409 12.2425C89.3409 12.2425 89.5181 12.9513 87.6576 14.9004C85.7971 16.8495 86.5354 20.7773 88.514 20.6592C88.514 20.6592 90.3638 20.9643 91.0292 19.705C91.1676 19.4333 91.2297 19.1291 91.209 18.8248C91.1882 18.5205 91.0852 18.2276 90.9111 17.9772C90.2997 17.0767 89.1204 15.1844 89.3409 14.2802V12.2425Z" fill="white"/>
<path opacity="0.5" d="M79.266 28.5798C78.4681 29.4195 77.3659 30.9226 76.6895 31.8747V28.4297C77.4351 27.5312 78.5034 26.4643 79.2412 25.7526C79.1393 26.3128 79.1707 27.3693 79.266 28.5798Z" fill="white"/>
<path opacity="0.5" d="M90.4904 26.4408C89.4935 27.2389 88.5479 28.0991 87.6592 29.016V25.7225C88.4632 24.9079 89.3564 24.1864 90.3219 23.5717C90.314 24.5308 90.3702 25.4893 90.4904 26.4408Z" fill="white"/>
<path d="M91.1538 31.0585C90.1051 31.9778 88.6621 33.2851 87.6592 34.1966V31.8394C88.7065 30.8757 89.9876 29.7656 90.8338 29.0422C90.9357 29.7278 91.0454 30.4095 91.1538 31.0585Z" fill="white"/>
<path opacity="0.5" d="M102.189 27.684C101.182 28.5276 100.014 29.6873 99.2388 30.4852V27.2008C100.063 26.3807 101.156 25.6559 101.964 25.1754C101.983 26.0157 102.058 26.8538 102.189 27.684Z" fill="white"/>
<path d="M111.949 37.6219H69.333V57.1243H111.949V37.6219Z" fill="#C99398"/>
<path opacity="0.1" d="M111.949 37.6219V40.5576C111.134 40.7156 110.065 40.4714 109.171 40.1724C108.643 39.9939 108.081 39.9374 107.528 40.0071C106.974 40.0767 106.444 40.2708 105.977 40.5746C103.522 42.1796 101.605 41.84 100.267 41.0421C99.6051 40.6379 98.8567 40.3961 98.0832 40.3364C97.3097 40.2767 96.5331 40.4009 95.8167 40.6987C95.1916 40.9559 94.5193 41.0792 93.8435 41.0604C93.0535 41.0498 92.2768 41.264 91.6039 41.6781C89.5876 42.8991 87.5778 42.1926 86.315 41.4548C85.4876 40.9779 84.5088 40.8368 83.5804 41.0604C83.1832 41.1563 82.7735 41.1897 82.3659 41.1596C81.4336 41.0723 80.497 41.2743 79.6836 41.7382C76.3549 43.6827 75.2553 41.3216 74.5997 40.9742C73.8593 40.5824 73.7731 41.9314 73.555 41.9314C73.3369 41.9314 72.5978 40.1476 72.4228 40.7561C72.3418 41.0421 71.6562 41.3856 70.951 41.6702C70.4382 41.8772 69.8773 41.9352 69.333 41.8374V37.6219H111.949Z" fill="black"/>
<path d="M71.0314 33.7338C71.0314 33.7338 64.047 36.8507 67.774 40.7453C68.1773 41.1599 68.6952 41.4446 69.2614 41.5628C69.8276 41.681 70.4162 41.6274 70.9517 41.4088C71.6564 41.1247 72.3419 40.7813 72.4236 40.4953C72.5977 39.8859 73.3377 41.6706 73.5554 41.6706C73.773 41.6706 73.8601 40.3212 74.6001 40.7129C75.2556 41.06 76.355 43.422 79.6833 41.4765C80.4974 41.013 81.4343 40.8112 82.3669 40.8984C82.7741 40.9288 83.1836 40.8953 83.5805 40.7989C84.509 40.5756 85.4878 40.7166 86.3155 41.1931C87.5782 41.931 89.5884 42.6374 91.604 41.4174C92.277 41.0028 93.054 40.7883 93.8444 40.7988C94.52 40.8181 95.1921 40.6948 95.8168 40.4368C96.5333 40.1395 97.31 40.0156 98.0835 40.0753C98.857 40.135 99.6055 40.3766 100.268 40.7804C101.605 41.5793 103.523 41.9183 105.977 40.3137C106.444 40.0095 106.974 39.8152 107.528 39.7454C108.081 39.6755 108.642 39.732 109.171 39.9105C110.956 40.5085 113.436 40.8898 113.211 38.2753C112.863 34.227 108.075 33.0516 106.072 33.0081C104.07 32.9646 100.762 32.6163 97.0181 33.0081C93.2745 33.3999 85.6568 33.3564 85.6568 33.3564C85.6568 33.3564 72.8655 32.8485 71.0314 33.7338Z" fill="#F8F8FA"/>
<path d="M121.417 57.1243H60.627V81.0001H121.417V57.1243Z" fill="#C99398"/>
<path opacity="0.1" d="M111.949 53.0512V57.1243H88.2503C88.2099 57.1191 88.1694 57.1152 88.1289 57.1126C87.9283 57.0975 87.7267 57.1014 87.5269 57.1243H69.333V53.4926C71.3154 53.7342 73.3147 54.0411 75.2853 54.0333C77.901 54.0215 80.4854 53.4782 83.1064 53.6245C92.2699 54.1338 101.601 54.2853 110.728 53.2001C111.134 53.1518 111.541 53.1008 111.949 53.0512Z" fill="black"/>
<path opacity="0.1" d="M121.417 57.1243V59.2777C120.756 59.1941 120.12 58.9303 119.481 58.7214C118.906 58.5333 118.283 58.3871 117.698 58.5425C117.389 58.6247 117.109 58.7867 116.804 58.8807C115.532 59.2777 114.206 58.4511 112.872 58.4458C111.551 58.4406 110.369 59.2372 109.079 59.5271C107.085 59.9751 105.046 59.1889 103.135 58.4602C102.362 58.1664 101.467 57.8856 100.744 58.2878C100.427 58.4641 100.188 58.754 99.8785 58.9447C98.9735 59.5036 97.7891 59.0675 96.8867 58.5033C96.316 58.1468 95.6252 57.7276 95.0232 58.0279C94.7124 58.182 94.5178 58.4942 94.2605 58.7253C93.4456 59.4553 92.1632 59.2594 91.1642 58.8154C90.1665 58.3714 89.2184 57.7158 88.1293 57.6349C86.5936 57.5187 85.2485 58.5542 83.9086 59.313C82.5688 60.0717 80.7105 60.5209 79.6174 59.4344C79.2557 59.0753 78.988 58.5555 78.493 58.4315C77.6742 58.2278 77.0592 59.2411 76.2338 59.4187C75.2165 59.6381 74.3886 58.5555 73.3687 58.3427C72.3135 58.122 71.3315 58.8559 70.4003 59.3978C69.4692 59.9398 68.1163 60.2454 67.4412 59.4057C67.2257 59.138 67.1082 58.7775 66.813 58.5999C66.588 58.4898 66.3351 58.4493 66.0869 58.4837C65.2035 58.5326 64.3361 58.7401 63.5261 59.0962C62.5963 59.5062 61.6965 60.1213 60.6818 60.1017C60.6635 60.1017 60.6452 60.1004 60.627 60.0991V57.1243H121.417Z" fill="black"/>
<path d="M75.2854 54.2943C70.6223 54.3141 65.8061 52.5657 61.4098 54.1206C59.8147 54.6847 58.1969 56.0196 58.3651 57.7032C58.4393 58.2746 58.712 58.8017 59.1354 59.1925C59.5588 59.5832 60.1061 59.8127 60.6816 59.8409C61.697 59.8605 62.5966 59.2448 63.5259 58.8352C64.336 58.4787 65.2038 58.271 66.0876 58.222C66.3359 58.1884 66.5887 58.2292 66.8138 58.3393C67.1084 58.516 67.2263 58.8773 67.4417 59.145C68.1171 59.9846 69.4691 59.6789 70.4004 59.1369C71.3317 58.5948 72.3142 57.8606 73.369 58.081C74.3881 58.2939 75.2162 59.377 76.2339 59.1576C77.0589 58.9797 77.6739 57.9671 78.4929 58.1709C78.9886 58.2943 79.2557 58.8137 79.6179 59.1739C80.71 60.2597 82.5686 59.8108 83.9085 59.0517C85.2484 58.2927 86.5933 57.2578 88.129 57.3731C89.2188 57.455 90.1661 58.1108 91.1648 58.5545C92.1636 58.9983 93.4463 59.1938 94.2604 58.4645C94.5184 58.2333 94.713 57.9205 95.0233 57.7662C95.6251 57.4669 96.3163 57.886 96.8863 58.2422C97.789 58.8061 98.9738 59.2427 99.8792 58.6833C100.188 58.4928 100.427 58.203 100.744 58.0266C101.466 57.6243 102.363 57.905 103.136 58.1996C105.046 58.928 107.085 59.7143 109.079 59.2658C110.368 58.9759 111.551 58.1801 112.873 58.1849C114.205 58.1899 115.532 59.0166 116.805 58.6201C117.109 58.5253 117.39 58.3638 117.697 58.2819C118.283 58.1257 118.905 58.2719 119.482 58.4604C120.247 58.7106 121.008 59.0398 121.813 59.0421C122.618 59.0445 123.498 58.6052 123.69 57.8238C123.838 57.2257 123.551 56.6057 123.192 56.1046C121.891 54.2848 119.636 53.3483 117.413 53.0994C115.19 52.8505 112.949 53.1978 110.728 53.4617C101.601 54.5462 92.2698 54.3952 83.1071 53.8857C80.4862 53.7399 77.9015 54.2833 75.2854 54.2943Z" fill="#F8F8FA"/>
<path d="M123.729 78.8453H56.5132V106.531H123.729V78.8453Z" fill="#C99398"/>
<path opacity="0.1" d="M124.027 78.0867C120.665 78.812 117.259 79.3181 113.832 79.6015C112.681 79.4009 111.499 79.4911 110.392 79.864C110.371 79.8705 110.35 79.877 110.329 79.8849C108.211 80.6345 106.388 82.4118 104.142 82.3831C102.349 82.3596 100.799 81.1751 99.0763 80.6789C98.5839 80.5368 98.0762 80.454 97.5641 80.4321C97.2161 80.4142 96.8672 80.4238 96.5207 80.4608C94.4378 80.5156 92.3549 80.5378 90.2719 80.4947C87.2161 80.4334 84.1668 80.2309 81.1175 80.0298C77.858 79.8144 74.5985 79.5989 71.3389 79.3834C68.2727 79.181 65.206 78.9786 62.1388 78.7762C61.3866 78.7265 60.6336 78.6765 59.8796 78.626C59.0687 78.5724 58.4666 78.7474 58.1389 78.0227C57.7497 77.1555 58.0931 76.2923 58.5698 75.5375C58.9799 75.5454 59.3912 75.5741 59.8 75.6028C66.0108 76.0403 72.2204 76.493 78.4287 76.961L77.4741 77.1294C83.9586 76.1082 90.5252 75.702 97.0861 75.9162C100.148 76.0168 103.228 76.2519 106.268 75.8614C108.404 75.5872 110.498 75.0073 112.645 74.8258C115.593 74.5764 118.549 75.0857 121.466 75.5937C122.08 75.6905 122.689 75.8195 123.289 75.9802C123.445 76.7272 123.618 77.4729 124.027 78.0867Z" fill="black"/>
<path opacity="0.1" d="M123.729 78.8453V81.448C122.891 81.3239 122.07 81.2012 121.56 81.7967C121.321 82.0774 121.229 82.4588 120.996 82.7461C120.517 83.3376 119.581 83.3363 118.896 83.0007C118.213 82.6651 117.692 82.0774 117.103 81.5943C116.166 80.8412 115.053 80.3375 113.869 80.13C112.685 79.9224 111.467 80.0178 110.329 80.4072C108.211 81.1568 106.388 82.9341 104.142 82.9054C102.349 82.8819 100.799 81.6974 99.0765 81.2012C98.1018 80.9275 97.0784 80.8735 96.0803 81.0431C95.0821 81.2127 94.1341 81.6016 93.3044 82.1819C92.0847 83.0477 90.9329 84.3915 89.4481 84.2204C88.6698 84.1303 88.0155 83.6236 87.3547 83.2018C86.0248 82.3563 84.5306 81.8026 82.9708 81.5773C82.2904 81.4806 81.5683 81.4519 80.9414 81.734C80.1514 82.0905 79.6407 82.878 78.9068 83.3403C77.2026 84.4124 74.993 83.4447 73.2366 82.4614C71.4789 81.478 69.3045 80.4712 67.5637 81.482C67.1537 81.7196 66.8024 82.0592 66.3688 82.2498C63.9203 83.3246 61.5161 79.1836 59.0035 80.099C58.4368 80.3053 57.9849 80.7507 57.4273 80.9805C57.1379 81.0981 56.8238 81.142 56.5132 81.1085V78.8453H123.729Z" fill="black"/>
<path d="M78.4294 77.2217C72.2207 76.7545 66.011 76.302 59.8002 75.8642C58.7218 75.7882 57.6157 75.7154 56.5793 76.0233C55.543 76.3311 54.5745 77.1051 54.3529 78.1632C54.0177 79.7629 55.9161 81.3408 57.4275 80.7189C57.9854 80.4894 58.4369 80.0436 59.0038 79.8373C61.5159 78.923 63.9204 83.0631 66.3681 81.9881C66.8022 81.7975 67.1531 81.4591 67.563 81.2211C69.3044 80.2101 71.4787 81.2175 73.2358 82.2009C74.993 83.1842 77.2024 84.1507 78.9069 83.0787C79.641 82.6171 80.1507 81.8296 80.9414 81.4733C81.5684 81.1908 82.2897 81.2193 82.9705 81.3167C84.5306 81.5414 86.0251 82.0951 87.3549 82.9413C88.0155 83.3624 88.6699 83.8688 89.4481 83.9589C90.933 84.1308 92.0852 82.7861 93.304 81.9207C94.1338 81.3406 95.0819 80.9517 96.08 80.782C97.0782 80.6124 98.1015 80.6662 99.0763 80.9395C100.799 81.4361 102.349 82.6208 104.141 82.6441C106.388 82.6734 108.211 80.8959 110.329 80.1457C111.467 79.7566 112.684 79.6614 113.869 79.869C115.053 80.0766 116.166 80.5803 117.103 81.3332C117.692 81.8167 118.213 82.4035 118.896 82.7395C119.58 83.0754 120.517 83.0768 120.996 82.4849C121.229 82.1982 121.321 81.8161 121.56 81.5356C122.541 80.3893 124.676 81.9042 125.865 80.9756C126.14 80.7452 126.331 80.4302 126.409 80.0798C126.707 78.892 125.961 77.6401 124.939 76.9654C123.917 76.2907 122.672 76.0656 121.465 75.8554C118.549 75.3472 115.594 74.8371 112.644 75.0866C110.498 75.2682 108.404 75.8489 106.268 76.1231C103.228 76.5131 100.149 76.2782 97.086 76.1779C90.525 75.9634 83.9584 76.3694 77.4737 77.3904" fill="#F8F8FA"/>
<path opacity="0.1" d="M123.729 98.9929V105.498C121.157 105.63 118.584 105.761 116.01 105.891C111.855 106.102 107.695 106.314 103.536 106.233C100.021 106.164 96.513 105.887 92.9988 105.777C85.61 105.547 78.2003 106.063 70.8324 105.472C68.474 105.282 66.1233 104.981 63.761 104.846C61.3455 104.712 58.9237 104.747 56.5132 104.95V98.8219C56.7351 98.8036 56.9579 98.7984 57.1805 98.8062C58.3461 98.8446 59.4914 99.1214 60.5458 99.6198C61.3698 100.01 62.1508 100.54 63.0492 100.696C65.3868 101.099 67.4175 98.8911 69.7838 98.7148C71.6891 98.5737 73.4011 99.7556 75.0361 100.744C75.3509 100.934 75.7008 101.124 76.0626 101.071C76.3655 101.026 76.615 100.819 76.8618 100.637C79.1941 98.9159 82.7475 99.1248 84.8604 101.108C85.0903 101.323 85.3188 101.564 85.6218 101.644C86.2212 101.803 86.7592 101.283 87.2346 100.884C89.8098 98.7122 93.7785 99.3651 96.7337 100.984C97.2809 101.283 97.8868 101.624 98.4915 101.468C98.8963 101.363 99.2084 101.052 99.5323 100.787C102.049 98.7226 105.833 99.1065 108.778 100.495C109.063 100.629 109.363 100.774 109.675 100.739C110.05 100.695 110.337 100.406 110.626 100.164C111.331 99.5918 112.183 99.229 113.085 99.1172C113.987 99.0055 114.902 99.1493 115.725 99.5323C116.19 99.7556 116.621 100.057 117.115 100.209C118.521 100.638 119.95 99.7647 121.354 99.322C122.122 99.0818 122.925 98.9706 123.729 98.9929Z" fill="black"/>
<path d="M130.813 105.398C125.879 105.65 120.945 105.902 116.01 106.152C111.855 106.363 107.696 106.575 103.536 106.494C100.021 106.425 96.5133 106.148 92.9991 106.038C85.6103 105.808 78.2006 106.324 70.8327 105.733C68.4742 105.543 66.1236 105.242 63.7612 105.107C61.1028 104.961 58.4372 105.018 55.7874 105.276C55.2206 105.329 54.3483 105.612 53.7998 105.501C53.2082 105.381 53.4341 105.313 53.6274 104.753C53.6852 104.587 53.734 104.417 53.7737 104.245C53.9356 103.56 53.9656 102.867 54.0322 102.156C54.1184 101.247 54.2516 100.247 55.0038 99.6288C55.5954 99.1417 56.4142 99.0425 57.1808 99.0673C58.3464 99.1057 59.4917 99.3825 60.5461 99.8809C61.3701 100.271 62.151 100.802 63.0495 100.957C65.3871 101.36 67.4178 99.1522 69.7841 98.9759C71.6894 98.8348 73.4014 100.017 75.0364 101.005C75.3511 101.195 75.7011 101.385 76.0628 101.332C76.3658 101.287 76.6152 101.08 76.8621 100.898C79.1944 99.177 82.7478 99.3859 84.8607 101.37C85.0906 101.584 85.3191 101.825 85.6221 101.905C86.2215 102.064 86.7595 101.545 87.2349 101.145C89.8101 98.9733 93.7787 99.6262 96.734 101.246C97.2812 101.545 97.8871 101.885 98.4918 101.729C98.8966 101.624 99.2087 101.313 99.5326 101.048C102.049 98.9837 105.834 99.3676 108.778 100.756C109.063 100.89 109.363 101.035 109.676 101C110.05 100.956 110.338 100.667 110.626 100.425C111.332 99.8529 112.184 99.4901 113.085 99.3783C113.987 99.2666 114.902 99.4104 115.726 99.7934C116.191 100.017 116.622 100.318 117.115 100.47C118.522 100.899 119.95 100.026 121.354 99.5831C123.188 99.004 125.177 99.168 126.891 100.04C128.606 100.912 129.909 102.422 130.522 104.245C130.651 104.621 130.749 105.006 130.813 105.398Z" fill="#F8F8FA"/>
<path opacity="0.1" d="M130.813 105.398C125.879 105.65 120.945 105.901 116.01 106.152C111.855 106.363 107.696 106.575 103.536 106.494C100.021 106.425 96.5133 106.148 92.9991 106.038C85.6103 105.808 78.2006 106.324 70.8327 105.733C68.4742 105.543 66.1236 105.242 63.7612 105.107C61.1028 104.961 58.4372 105.018 55.7874 105.276C55.2206 105.329 54.3483 105.612 53.7998 105.501C53.2082 105.381 53.4341 105.313 53.6274 104.753C53.6852 104.587 53.734 104.417 53.7737 104.245H130.522C130.651 104.621 130.749 105.006 130.813 105.398Z" fill="black"/>
<path d="M51.8681 104.376H131.677C132.368 104.376 133.03 104.65 133.518 105.138C134.006 105.626 134.28 106.288 134.28 106.978V107.314H49.2656V106.978C49.2656 106.288 49.5398 105.626 50.0279 105.138C50.5159 104.65 51.1779 104.376 51.8681 104.376Z" fill="#D4D5E0"/>
<path d="M71.5075 35.9362L71.4551 35.9205C71.3429 35.8868 71.2246 35.9504 71.191 36.0626L70.9325 36.9233C70.8988 37.0355 70.9625 37.1537 71.0746 37.1874L71.127 37.2031C71.2392 37.2368 71.3574 37.1732 71.3911 37.061L71.6496 36.2003C71.6832 36.0881 71.6196 35.9699 71.5075 35.9362Z" fill="white"/>
<path d="M64.5465 55.1058L64.4941 55.09C64.3819 55.0564 64.2637 55.12 64.23 55.2322L63.9716 56.0929C63.9379 56.205 64.0015 56.3233 64.1137 56.3569L64.1661 56.3727C64.2783 56.4064 64.3965 56.3427 64.4302 56.2306L64.6886 55.3699C64.7223 55.2577 64.6587 55.1395 64.5465 55.1058Z" fill="white"/>
<path d="M57.0905 77.3027L57.0381 77.287C56.9259 77.2533 56.8077 77.3169 56.774 77.4291L56.5155 78.2898C56.4818 78.402 56.5455 78.5202 56.6576 78.5539L56.71 78.5696C56.8222 78.6033 56.9405 78.5397 56.9741 78.4275L57.2326 77.5668C57.2663 77.4546 57.2026 77.3364 57.0905 77.3027Z" fill="white"/>
<path d="M75.733 78.7771L75.6806 78.7614C75.5685 78.7277 75.4502 78.7913 75.4166 78.9035L75.1581 79.7642C75.1244 79.8764 75.188 79.9946 75.3002 80.0283L75.3526 80.044C75.4648 80.0777 75.583 80.0141 75.6167 79.9019L75.8752 79.0412C75.9088 78.929 75.8452 78.8108 75.733 78.7771Z" fill="white"/>
<path d="M86.8024 77.9464L86.75 77.9307C86.6378 77.897 86.5196 77.9606 86.4859 78.0728L86.2274 78.9335C86.1938 79.0457 86.2574 79.1639 86.3696 79.1976L86.422 79.2133C86.5341 79.247 86.6524 79.1834 86.686 79.0712L86.9445 78.2105C86.9782 78.0983 86.9145 77.9801 86.8024 77.9464Z" fill="white"/>
<path d="M102.405 79.6304L102.353 79.6146C102.24 79.581 102.122 79.6446 102.088 79.7567L101.83 80.6175C101.796 80.7296 101.86 80.8479 101.972 80.8815L102.025 80.8973C102.137 80.931 102.255 80.8673 102.289 80.7552L102.547 79.8945C102.581 79.7823 102.517 79.6641 102.405 79.6304Z" fill="white"/>
<path d="M113.076 77.1695L113.024 77.1538C112.912 77.1201 112.793 77.1837 112.76 77.2959L112.501 78.1566C112.468 78.2688 112.531 78.387 112.643 78.4207L112.696 78.4364C112.808 78.4701 112.926 78.4065 112.96 78.2943L113.218 77.4336C113.252 77.3214 113.188 77.2032 113.076 77.1695Z" fill="white"/>
<path d="M66.2081 78.2198L66.1557 78.2041C66.0436 78.1704 65.9253 78.2341 65.8917 78.3462L65.6332 79.2069C65.5995 79.3191 65.6632 79.4373 65.7753 79.471L65.8277 79.4868C65.9399 79.5204 66.0581 79.4568 66.0918 79.3446L66.3503 78.4839C66.3839 78.3718 66.3203 78.2535 66.2081 78.2198Z" fill="white"/>
<path d="M88.8331 80.456L88.7807 80.4403C88.6686 80.4066 88.5503 80.4702 88.5167 80.5824L88.2582 81.4431C88.2245 81.5553 88.2881 81.6735 88.4003 81.7072L88.4527 81.7229C88.5649 81.7566 88.6831 81.693 88.7168 81.5808L88.9753 80.7201C89.0089 80.6079 88.9453 80.4897 88.8331 80.456Z" fill="white"/>
<path d="M98.1691 77.9464L98.1167 77.9307C98.0045 77.897 97.8863 77.9606 97.8526 78.0728L97.5941 78.9335C97.5605 79.0457 97.6241 79.1639 97.7363 79.1976L97.7887 79.2133C97.9008 79.247 98.0191 79.1834 98.0528 79.0712L98.3112 78.2105C98.3449 78.0983 98.2813 77.9801 98.1691 77.9464Z" fill="white"/>
<path d="M117.886 77.1695L117.834 77.1538C117.722 77.1201 117.604 77.1837 117.57 77.2959L117.311 78.1566C117.278 78.2688 117.341 78.387 117.454 78.4207L117.506 78.4364C117.618 78.4701 117.736 78.4065 117.77 78.2943L118.028 77.4336C118.062 77.3214 117.999 77.2032 117.886 77.1695Z" fill="white"/>
<path d="M95.2498 35.8839L95.2174 35.928C95.148 36.0224 95.1683 36.1551 95.2626 36.2245L95.9867 36.7569C96.081 36.8262 96.2138 36.806 96.2831 36.7116L96.3155 36.6675C96.3849 36.5732 96.3647 36.4405 96.2703 36.3711L95.5463 35.8387C95.4519 35.7693 95.3192 35.7896 95.2498 35.8839Z" fill="white"/>
<path d="M89.4354 35.4496L89.403 35.4937C89.3336 35.5881 89.3538 35.7208 89.4482 35.7902L90.1722 36.3225C90.2666 36.3919 90.3993 36.3716 90.4687 36.2773L90.5011 36.2332C90.5705 36.1389 90.5502 36.0061 90.4559 35.9367L89.7318 35.4044C89.6375 35.335 89.5048 35.3553 89.4354 35.4496Z" fill="white"/>
<path d="M79.9959 35.4496L79.9635 35.4937C79.8941 35.5881 79.9144 35.7208 80.0087 35.7902L80.7328 36.3225C80.8271 36.3919 80.9599 36.3717 81.0292 36.2773L81.0616 36.2332C81.131 36.1389 81.1108 36.0061 81.0164 35.9367L80.2924 35.4044C80.198 35.335 80.0653 35.3553 79.9959 35.4496Z" fill="white"/>
<path d="M67.4212 54.6739L67.3888 54.718C67.3194 54.8124 67.3397 54.9451 67.434 55.0145L68.1581 55.5468C68.2524 55.6162 68.3851 55.596 68.4545 55.5016L68.4869 55.4575C68.5563 55.3632 68.5361 55.2304 68.4417 55.1611L67.7177 54.6287C67.6233 54.5593 67.4906 54.5796 67.4212 54.6739Z" fill="white"/>
<path d="M68.138 56.6161L68.1056 56.6601C68.0362 56.7545 68.0565 56.8872 68.1508 56.9566L68.8749 57.489C68.9692 57.5583 69.1019 57.5381 69.1713 57.4437L69.2037 57.3997C69.2731 57.3053 69.2529 57.1726 69.1585 57.1032L68.4345 56.5708C68.3401 56.5015 68.2074 56.5217 68.138 56.6161Z" fill="white"/>
<path d="M83.6561 54.8282L83.6237 54.8722C83.5543 54.9666 83.5745 55.0993 83.6689 55.1687L84.3929 55.7011C84.4873 55.7704 84.62 55.7502 84.6894 55.6558L84.7218 55.6117C84.7912 55.5174 84.7709 55.3847 84.6766 55.3153L83.9525 54.7829C83.8582 54.7136 83.7255 54.7338 83.6561 54.8282Z" fill="white"/>
<path d="M77.5003 80.1036L77.4679 80.1477C77.3985 80.2421 77.4188 80.3748 77.5131 80.4442L78.2372 80.9765C78.3315 81.0459 78.4642 81.0256 78.5336 80.9313L78.566 80.8872C78.6354 80.7928 78.6152 80.6601 78.5208 80.5907L77.7968 80.0584C77.7024 79.989 77.5697 80.0093 77.5003 80.1036Z" fill="white"/>
<path d="M100.463 55.8294L100.43 55.8735C100.361 55.9679 100.381 56.1006 100.476 56.17L101.2 56.7023C101.294 56.7717 101.427 56.7515 101.496 56.6571L101.528 56.613C101.598 56.5187 101.578 56.3859 101.483 56.3166L100.759 55.7842C100.665 55.7148 100.532 55.7351 100.463 55.8294Z" fill="white"/>
<path d="M107.375 56.7466L107.343 56.7907C107.274 56.8851 107.294 57.0178 107.388 57.0872L108.112 57.6195C108.207 57.6889 108.339 57.6686 108.409 57.5743L108.441 57.5302C108.51 57.4359 108.49 57.3031 108.396 57.2338L107.672 56.7014C107.577 56.632 107.445 56.6523 107.375 56.7466Z" fill="white"/>
<path d="M105.284 77.3813L105.251 77.4254C105.182 77.5197 105.202 77.6524 105.296 77.7218L106.02 78.2542C106.115 78.3235 106.247 78.3033 106.317 78.2089L106.349 78.1649C106.419 78.0705 106.398 77.9378 106.304 77.8684L105.58 77.336C105.486 77.2667 105.353 77.2869 105.284 77.3813Z" fill="white"/>
<path d="M119.529 79.8374L119.497 79.8815C119.427 79.9759 119.448 80.1086 119.542 80.178L120.266 80.7103C120.36 80.7797 120.493 80.7595 120.562 80.6651L120.595 80.621C120.664 80.5267 120.644 80.3939 120.55 80.3246L119.826 79.7922C119.731 79.7228 119.598 79.7431 119.529 79.8374Z" fill="white"/>
<path d="M71.2132 78.4316L71.1808 78.4757C71.1114 78.5701 71.1317 78.7028 71.226 78.7722L71.9501 79.3045C72.0444 79.3739 72.1771 79.3536 72.2465 79.2593L72.2789 79.2152C72.3483 79.1208 72.3281 78.9881 72.2337 78.9187L71.5097 78.3864C71.4153 78.317 71.2826 78.3373 71.2132 78.4316Z" fill="white"/>
<path d="M60.8406 77.5145L60.8082 77.5586C60.7389 77.6529 60.7591 77.7857 60.8535 77.855L61.5775 78.3874C61.6718 78.4568 61.8046 78.4365 61.874 78.3422L61.9064 78.2981C61.9757 78.2037 61.9555 78.071 61.8611 78.0016L61.1371 77.4693C61.0428 77.3999 60.91 77.4201 60.8406 77.5145Z" fill="white"/>
<path d="M81.4241 79.1195L81.3917 79.1636C81.3224 79.2579 81.3426 79.3907 81.437 79.46L82.161 79.9924C82.2553 80.0618 82.3881 80.0415 82.4575 79.9472L82.4899 79.9031C82.5592 79.8087 82.539 79.676 82.4446 79.6066L81.7206 79.0743C81.6263 79.0049 81.4935 79.0251 81.4241 79.1195Z" fill="white"/>
<path d="M92.5306 78.4316L92.4982 78.4756C92.4288 78.57 92.449 78.7027 92.5434 78.7721L93.2674 79.3045C93.3618 79.3738 93.4945 79.3536 93.5639 79.2592L93.5963 79.2151C93.6657 79.1208 93.6454 78.9881 93.5511 78.9187L92.8271 78.3863C92.7327 78.3169 92.6 78.3372 92.5306 78.4316Z" fill="white"/>
<path d="M107.607 36.5266L107.576 36.482C107.508 36.3864 107.376 36.3639 107.28 36.4316L106.547 36.9512C106.451 37.0189 106.429 37.1512 106.496 37.2468L106.528 37.2914C106.596 37.387 106.728 37.4096 106.824 37.3419L107.557 36.8223C107.653 36.7545 107.675 36.6222 107.607 36.5266Z" fill="white"/>
<path d="M95.3579 38.3288L95.3262 38.2842C95.2585 38.1886 95.1261 38.166 95.0306 38.2338L94.2974 38.7534C94.2018 38.8211 94.1792 38.9534 94.2469 39.049L94.2786 39.0936C94.3463 39.1892 94.4786 39.2117 94.5742 39.144L95.3074 38.6244C95.403 38.5567 95.4256 38.4244 95.3579 38.3288Z" fill="white"/>
<path d="M75.0986 56.0675L75.0669 56.0228C74.9992 55.9272 74.8669 55.9047 74.7713 55.9724L74.0381 56.492C73.9425 56.5597 73.92 56.6921 73.9877 56.7876L74.0193 56.8323C74.087 56.9278 74.2194 56.9504 74.3149 56.8827L75.0482 56.3631C75.1437 56.2954 75.1663 56.163 75.0986 56.0675Z" fill="white"/>
<path d="M81.2241 56.6698L81.1924 56.6252C81.1247 56.5296 80.9924 56.507 80.8968 56.5748L80.1636 57.0944C80.068 57.1621 80.0454 57.2944 80.1131 57.39L80.1448 57.4346C80.2125 57.5302 80.3449 57.5527 80.4404 57.485L81.1737 56.9654C81.2692 56.8977 81.2918 56.7654 81.2241 56.6698Z" fill="white"/>
<path d="M93.0649 56.6698L93.0333 56.6252C92.9655 56.5296 92.8332 56.507 92.7376 56.5748L92.0044 57.0944C91.9088 57.1621 91.8863 57.2944 91.954 57.39L91.9856 57.4346C92.0533 57.5302 92.1857 57.5528 92.2812 57.485L93.0145 56.9654C93.11 56.8977 93.1326 56.7654 93.0649 56.6698Z" fill="white"/>
<path d="M96.7665 55.4138L96.7349 55.3691C96.6672 55.2736 96.5348 55.251 96.4393 55.3187L95.706 55.8383C95.6105 55.906 95.5879 56.0384 95.6556 56.1339L95.6873 56.1786C95.755 56.2741 95.8873 56.2967 95.9829 56.229L96.7161 55.7094C96.8117 55.6417 96.8343 55.5093 96.7665 55.4138Z" fill="white"/>
<path d="M105.528 55.8833L105.496 55.8386C105.428 55.7431 105.296 55.7205 105.201 55.7882L104.467 56.3078C104.372 56.3755 104.349 56.5079 104.417 56.6034L104.449 56.6481C104.516 56.7436 104.649 56.7662 104.744 56.6985L105.477 56.1789C105.573 56.1112 105.595 55.9788 105.528 55.8833Z" fill="white"/>
<path d="M111.921 54.8819L111.889 54.8373C111.821 54.7417 111.689 54.7191 111.594 54.7869L110.86 55.3065C110.765 55.3742 110.742 55.5065 110.81 55.6021L110.842 55.6467C110.909 55.7423 111.042 55.7649 111.137 55.6971L111.87 55.1775C111.966 55.1098 111.989 54.9775 111.921 54.8819Z" fill="white"/>
<path d="M120.601 55.4138L120.569 55.3691C120.502 55.2736 120.369 55.251 120.274 55.3187L119.541 55.8383C119.445 55.906 119.422 56.0384 119.49 56.1339L119.522 56.1786C119.589 56.2741 119.722 56.2967 119.817 56.229L120.551 55.7094C120.646 55.6417 120.669 55.5093 120.601 55.4138Z" fill="white"/>
<path d="M93.6251 34.9643L93.5727 34.9486C93.4606 34.9149 93.3423 34.9785 93.3086 35.0907L93.0502 35.9514C93.0165 36.0636 93.0801 36.1818 93.1923 36.2155L93.2447 36.2312C93.3569 36.2649 93.4751 36.2013 93.5088 36.0891L93.7673 35.2284C93.8009 35.1162 93.7373 34.998 93.6251 34.9643Z" fill="white"/>
<path d="M100.804 34.6457L100.751 34.63C100.639 34.5963 100.521 34.6599 100.487 34.7721L100.229 35.6328C100.195 35.7449 100.259 35.8632 100.371 35.8969L100.423 35.9126C100.536 35.9463 100.654 35.8827 100.688 35.7705L100.946 34.9098C100.98 34.7976 100.916 34.6794 100.804 34.6457Z" fill="white"/>
<path d="M90.9479 37.5484L90.8955 37.5327C90.7833 37.499 90.6651 37.5626 90.6314 37.6748L90.373 38.5355C90.3393 38.6477 90.4029 38.7659 90.5151 38.7996L90.5675 38.8153C90.6796 38.849 90.7979 38.7854 90.8316 38.6732L91.09 37.8125C91.1237 37.7003 91.0601 37.5821 90.9479 37.5484Z" fill="white"/>
<path d="M76.9054 38.0633L76.853 38.0476C76.7408 38.0139 76.6226 38.0775 76.5889 38.1897L76.3305 39.0504C76.2968 39.1626 76.3604 39.2808 76.4726 39.3145L76.525 39.3302C76.6372 39.3639 76.7554 39.3003 76.7891 39.1881L77.0475 38.3274C77.0812 38.2152 77.0176 38.097 76.9054 38.0633Z" fill="white"/>
<path d="M101.905 36.9047L101.853 36.889C101.741 36.8553 101.623 36.9189 101.589 37.0311L101.33 37.8918C101.297 38.004 101.36 38.1222 101.473 38.1559L101.525 38.1716C101.637 38.2053 101.755 38.1417 101.789 38.0295L102.048 37.1688C102.081 37.0566 102.018 36.9384 101.905 36.9047Z" fill="white"/>
<path d="M75.733 34.9643L75.6806 34.9486C75.5685 34.9149 75.4502 34.9785 75.4166 35.0907L75.1581 35.9514C75.1244 36.0636 75.188 36.1818 75.3002 36.2155L75.3526 36.2312C75.4648 36.2649 75.583 36.2013 75.6167 36.0891L75.8752 35.2284C75.9088 35.1162 75.8452 34.998 75.733 34.9643Z" fill="white"/>
<path d="M83.109 36.2611L83.0566 36.2454C82.9444 36.2117 82.8262 36.2753 82.7925 36.3875L82.5341 37.2482C82.5004 37.3604 82.564 37.4786 82.6762 37.5123L82.7286 37.528C82.8408 37.5617 82.959 37.4981 82.9927 37.3859L83.2511 36.5252C83.2848 36.413 83.2212 36.2948 83.109 36.2611Z" fill="white"/>
<path d="M78.6037 55.1058L78.5512 55.09C78.4391 55.0564 78.3208 55.12 78.2872 55.2322L78.0287 56.0929C77.995 56.205 78.0587 56.3233 78.1708 56.3569L78.2232 56.3727C78.3354 56.4064 78.4536 56.3427 78.4873 56.2306L78.7458 55.3699C78.7794 55.2577 78.7158 55.1395 78.6037 55.1058Z" fill="white"/>
<path d="M89.6232 55.1056L89.5708 55.0899C89.4586 55.0562 89.3404 55.1199 89.3067 55.232L89.0483 56.0927C89.0146 56.2049 89.0782 56.3232 89.1904 56.3568L89.2428 56.3726C89.3549 56.4062 89.4732 56.3426 89.5069 56.2305L89.7653 55.3697C89.799 55.2576 89.7353 55.1393 89.6232 55.1056Z" fill="white"/>
<path d="M115.209 55.6177L115.156 55.602C115.044 55.5683 114.926 55.6319 114.892 55.7441L114.634 56.6048C114.6 56.717 114.664 56.8352 114.776 56.8689L114.828 56.8846C114.94 56.9183 115.059 56.8547 115.092 56.7425L115.351 55.8818C115.384 55.7697 115.321 55.6514 115.209 55.6177Z" fill="white"/>
<path d="M117.887 55.6175L117.835 55.6018C117.723 55.5681 117.605 55.6317 117.571 55.7439L117.312 56.6046C117.279 56.7168 117.342 56.835 117.455 56.8687L117.507 56.8844C117.619 56.9181 117.737 56.8545 117.771 56.7423L118.029 55.8816C118.063 55.7694 118 55.6512 117.887 55.6175Z" fill="white"/>
<path d="M86.0538 38.0633L86.0014 38.0476C85.8893 38.0139 85.771 38.0775 85.7374 38.1897L85.4789 39.0504C85.4452 39.1626 85.5089 39.2808 85.621 39.3145L85.6734 39.3302C85.7856 39.3639 85.9038 39.3003 85.9375 39.1881L86.196 38.3274C86.2296 38.2152 86.166 38.097 86.0538 38.0633Z" fill="white"/>
<path opacity="0.1" d="M66.8316 120.222C81.9358 120.222 94.1802 119.121 94.1802 117.762C94.1802 116.403 81.9358 115.302 66.8316 115.302C51.7273 115.302 39.4829 116.403 39.4829 117.762C39.4829 119.121 51.7273 120.222 66.8316 120.222Z" fill="white"/>
<path opacity="0.1" d="M30.4001 107.849C32.8133 107.849 34.7695 107.651 34.7695 107.407C34.7695 107.162 32.8133 106.964 30.4001 106.964C27.987 106.964 26.0308 107.162 26.0308 107.407C26.0308 107.651 27.987 107.849 30.4001 107.849Z" fill="white"/>
<path opacity="0.1" d="M18.6399 118.929C21.053 118.929 23.0093 118.731 23.0093 118.486C23.0093 118.242 21.053 118.044 18.6399 118.044C16.2267 118.044 14.2705 118.242 14.2705 118.486C14.2705 118.731 16.2267 118.929 18.6399 118.929Z" fill="white"/>
<path opacity="0.1" d="M138.719 117.6C141.132 117.6 143.088 117.401 143.088 117.157C143.088 116.913 141.132 116.714 138.719 116.714C136.305 116.714 134.349 116.913 134.349 117.157C134.349 117.401 136.305 117.6 138.719 117.6Z" fill="white"/>
<path opacity="0.1" d="M128.098 122.289C130.512 122.289 132.468 122.09 132.468 121.846C132.468 121.601 130.512 121.403 128.098 121.403C125.685 121.403 123.729 121.601 123.729 121.846C123.729 122.09 125.685 122.289 128.098 122.289Z" fill="white"/>
<path opacity="0.1" d="M115.538 114.72C117.951 114.72 119.907 114.522 119.907 114.277C119.907 114.033 117.951 113.835 115.538 113.835C113.125 113.835 111.168 114.033 111.168 114.277C111.168 114.522 113.125 114.72 115.538 114.72Z" fill="white"/>
<path opacity="0.1" d="M95.7659 125C98.179 125 100.135 124.802 100.135 124.557C100.135 124.313 98.179 124.115 95.7659 124.115C93.3527 124.115 91.3965 124.313 91.3965 124.557C91.3965 124.802 93.3527 125 95.7659 125Z" fill="white"/>
<path d="M82.596 65.1772L80.6513 69.3122C80.6513 69.3122 80.3648 70.0881 80.1799 70.2321C79.9965 70.3762 79.178 72.8316 79.178 72.8316L77.0909 76.0482V76.0498L76.9485 76.2692L76.1301 76.0433L75.5571 73.8989L75.5915 73.2768L75.5964 73.1983C75.5964 73.1983 76.8863 71.8494 77.1728 71.7463C77.1728 71.7463 77.3971 71.7725 77.8276 70.7265C78.2581 69.6788 78.646 69.4546 78.646 69.4546L78.8703 68.6967L81.2864 64.8499C81.2864 64.8499 83.3113 61.9459 83.863 63.2342C84.4163 64.5225 82.596 65.1772 82.596 65.1772Z" fill="#FFD2C6"/>
<path d="M59.0716 69.5234C58.9669 69.743 58.891 69.9752 58.8457 70.2142C58.8326 70.2748 58.8195 70.3386 58.8048 70.4041C58.6705 71.0932 58.5789 71.9608 58.5331 72.4634C58.5101 72.7171 58.4987 72.8791 58.4987 72.8791C58.4987 72.8791 53.614 72.5518 54.4603 71.7333C54.6773 71.5061 54.8313 71.2262 54.9072 70.9213C54.9318 70.8346 54.9531 70.7462 54.9711 70.6562C55.0109 70.4519 55.0366 70.2452 55.048 70.0374C55.0513 69.985 55.0529 69.9326 55.0545 69.8803C55.0645 69.5423 55.0481 69.204 55.0054 68.8686C55.0054 68.8686 56.5949 68.8588 57.7915 68.9963C58.5969 69.0896 59.2255 69.2484 59.0716 69.5234Z" fill="#D38884"/>
<path d="M74.516 94.5473C74.51 94.6176 74.4876 94.6854 74.4505 94.7454C74.2262 95.0728 72.9576 101.763 72.9576 101.763C73.0591 102.215 72.7743 103.115 72.5893 103.524C72.4043 103.934 71.9951 106.062 71.9951 106.062C71.9951 106.062 71.8936 110.645 71.6284 111.36C71.3616 112.076 71.7135 113.611 71.7135 113.611C71.6873 114.317 72.1113 115.063 72.3634 115.443C72.3814 115.467 72.3978 115.492 72.4125 115.513C72.4943 115.631 72.5484 115.698 72.5484 115.698C72.6179 115.835 72.7155 115.956 72.8348 116.052C72.8528 116.067 72.8725 116.081 72.8921 116.096C73.2402 116.329 73.6297 116.494 74.0396 116.581C74.0527 116.584 74.0658 116.586 74.0789 116.589C74.2426 116.625 74.349 116.64 74.349 116.64L74.4505 117.193L73.3668 117.417L71.301 117.56C71.301 117.56 68.8653 117.744 69.4185 116.659C69.4568 116.585 69.4902 116.509 69.5184 116.43H69.52C69.5397 116.378 69.5593 116.324 69.5757 116.268C69.908 115.225 69.6837 113.958 69.6837 113.958L69.2123 110.255C68.4364 106.818 69.8245 102.991 69.8245 102.991C69.8245 102.991 69.7034 102.685 69.9702 101.907C70.237 101.129 69.9702 99.432 69.9702 99.432C69.9702 99.432 69.8278 97.2418 69.6428 96.1581C69.5701 95.7025 69.5454 95.2405 69.5691 94.7798C69.578 94.5096 69.6026 94.2401 69.6428 93.9728L74.3081 93.354C74.3081 93.354 74.5716 94.1152 74.516 94.5473Z" fill="#FFD2C6"/>
<path opacity="0.1" d="M74.4507 117.193L73.367 117.417L71.3012 117.559C71.3012 117.559 68.8654 117.744 69.4187 116.659C69.457 116.585 69.4903 116.508 69.5185 116.43H69.5202C69.5398 116.378 69.5595 116.324 69.5758 116.268C69.9983 116.281 70.4155 116.365 70.8101 116.517C71.5042 116.784 72.0263 116.086 72.0263 116.086L72.3635 115.443L72.4126 115.35C72.4945 115.467 72.5485 115.535 72.5485 115.535C72.6294 115.693 72.7473 115.829 72.8923 115.932L72.835 116.052L72.5076 116.741C72.5076 116.741 72.9267 116.784 73.4996 116.875C73.6102 116.905 73.7282 116.891 73.8288 116.836C73.9295 116.781 74.005 116.69 74.0398 116.581C74.0529 116.584 74.066 116.585 74.0791 116.589C74.2428 116.625 74.3492 116.64 74.3492 116.64L74.4507 117.193Z" fill="black"/>
<path d="M75.4542 117.704C75.3724 118.072 73.0905 118.185 73.0905 118.185C73.0905 118.185 71.8218 118.062 71.465 118.358C71.1065 118.655 70.0621 118.584 70.0212 118.584C69.9803 118.584 69.4286 118.563 69.2125 117.573C69.003 116.607 69.4941 116.438 69.5186 116.43H69.5203C69.9617 116.436 70.3986 116.521 70.8102 116.681C71.5043 116.947 72.0265 116.25 72.0265 116.25L72.4127 115.513C72.4946 115.631 72.5486 115.698 72.5486 115.698C72.6295 115.857 72.7474 115.993 72.8924 116.096L72.5077 116.905C72.5077 116.905 72.9268 116.947 73.4997 117.039C73.958 117.113 74.0579 116.739 74.0792 116.589C74.082 116.568 74.0837 116.547 74.0841 116.527C74.0841 116.527 74.4409 116.63 74.8813 116.753C75.0783 116.811 75.2463 116.941 75.3524 117.117C75.4584 117.293 75.4947 117.502 75.4542 117.704Z" fill="#626696"/>
<path d="M79.7512 99.4239C79.6971 99.7513 79.6415 100.598 79.6415 100.598C79.833 101.306 79.3419 102.991 79.3419 102.991L79.0964 103.953C79.206 105.181 78.422 108.182 78.422 108.182C78.422 108.182 77.8965 110.964 77.6231 112.166C77.4611 112.833 77.5109 113.535 77.7655 114.173C77.7786 114.205 77.7868 114.222 77.7868 114.222C77.7917 114.245 77.7966 114.266 77.8032 114.289C77.8113 114.322 77.8211 114.354 77.8327 114.386C77.8934 114.553 77.9844 114.708 78.1011 114.842C78.146 114.896 78.1953 114.947 78.2484 114.993C78.2517 114.996 78.2533 114.999 78.2566 115.001C78.513 115.229 78.8071 115.41 79.1258 115.536H79.1275L79.1291 115.538C79.1766 115.558 79.2224 115.576 79.2666 115.592C79.4084 115.646 79.5533 115.691 79.7004 115.728H79.702C79.7331 115.736 79.7512 115.739 79.7512 115.739L79.6415 116.383L78.1961 116.013L76.2595 115.384L75.3068 114.839C75.3068 114.839 75.3167 114.787 75.3363 114.687C75.338 114.682 75.338 114.675 75.3396 114.67C75.3478 114.628 75.356 114.577 75.3674 114.52C75.5164 113.675 75.8863 111.313 75.7014 109.573C75.4705 107.419 76.3676 104.444 76.5869 103.736C76.7167 103.33 76.7722 102.905 76.7506 102.48C76.3954 101.961 76.3136 99.8888 76.3136 99.8888C76.3136 99.8888 75.6588 98.5514 75.117 97.1322C74.9382 96.6688 74.8076 96.1883 74.7274 95.6982C74.6644 95.3527 74.6381 95.0015 74.6488 94.6505C74.6488 94.6505 79.0423 90.64 79.5253 94.5229C79.5416 94.6538 79.5564 94.7799 79.5711 94.9026C79.9967 98.4532 79.8035 99.1079 79.7512 99.4239Z" fill="#FFD2C6"/>
<path opacity="0.1" d="M79.751 115.739L79.6413 116.383L78.1959 116.013L76.2593 115.384L75.3066 114.839C75.3066 114.839 75.3165 114.787 75.3361 114.687C75.3378 114.682 75.3378 114.675 75.3394 114.67C75.3476 114.628 75.3558 114.577 75.3672 114.52L75.5031 114.507L75.5145 114.505C75.7895 114.479 76.0667 114.516 76.3248 114.615C76.6408 114.733 77.0533 114.868 77.1384 114.811C77.2844 114.748 77.443 114.72 77.6016 114.729L77.803 114.289L77.8325 114.222C77.8932 114.389 77.9842 114.544 78.1009 114.679C78.1485 114.735 78.2005 114.788 78.2564 114.837L78.2483 114.993L78.2368 115.214C78.4532 115.352 78.6872 115.46 78.9325 115.535C78.9958 115.551 79.0621 115.551 79.1256 115.536H79.1273L79.1289 115.538C79.1764 115.558 79.2222 115.576 79.2664 115.592C79.4082 115.646 79.5531 115.691 79.7002 115.728H79.7018C79.733 115.736 79.751 115.739 79.751 115.739Z" fill="black"/>
<path d="M79.0272 117.111C78.6245 116.995 77.6505 116.81 77.4934 116.954C77.3362 117.098 75.9857 116.954 75.9857 116.954C75.8444 116.951 75.706 116.912 75.5842 116.841C75.4623 116.769 75.361 116.667 75.29 116.545C75.0101 116.108 75.236 114.697 75.236 114.697L75.3359 114.687L75.5029 114.67L75.5143 114.669C75.7892 114.643 76.0665 114.68 76.3246 114.778C76.6405 114.896 77.053 115.032 77.1382 114.975C77.2841 114.912 77.4427 114.884 77.6014 114.893L77.8322 114.385C77.893 114.553 77.984 114.708 78.1007 114.842C78.1483 114.899 78.2003 114.952 78.2562 115.001L78.2366 115.377C78.4529 115.515 78.687 115.623 78.9323 115.698C78.9917 115.721 79.0572 115.723 79.1178 115.704C79.1785 115.684 79.2308 115.645 79.2662 115.592C79.2766 115.574 79.2848 115.556 79.2907 115.536L79.2924 115.538C79.3055 115.561 79.4381 115.607 79.8637 115.728H79.8653C80.3269 115.702 80.7738 115.903 80.9784 116.53C81.183 117.158 79.4299 117.226 79.0272 117.111Z" fill="#626696"/>
<path opacity="0.1" d="M74.5162 94.5473C74.4261 94.5735 74.3443 94.5981 74.2674 94.6226C74.0706 94.6822 73.869 94.7249 73.665 94.7503C72.3734 94.932 70.2454 94.8223 69.5693 94.7798C69.5782 94.5096 69.6028 94.2401 69.643 93.9728L74.3083 93.354C74.3083 93.354 74.5718 94.1152 74.5162 94.5473Z" fill="black"/>
<path d="M78.5853 93.4146C78.5853 93.4146 76.873 93.6798 75.4799 93.9842C75.0151 94.0857 74.5845 94.1921 74.267 94.2953C74.0702 94.3548 73.8687 94.3975 73.6646 94.4229C72.1128 94.6407 69.3561 94.4393 69.3561 94.4393C68.5999 91.9839 70.2761 88.8933 70.2761 88.8933C70.2368 88.6478 70.6248 87.8915 70.6248 87.8915L70.6313 87.867L70.8703 86.9912H77.2331L77.3117 87.3677L77.4738 88.1338L78.4723 92.8777L78.5853 93.4146Z" fill="#626696"/>
<path opacity="0.1" d="M79.5711 94.9026L79.5334 94.919L78.7886 95.2497C77.9832 95.6213 75.5704 95.6916 74.7274 95.6982C74.6644 95.3527 74.6381 95.0016 74.6488 94.6505C74.6488 94.6505 79.0423 90.64 79.5252 94.5229C79.5416 94.6538 79.5564 94.7799 79.5711 94.9026Z" fill="black"/>
<path d="M79.6893 94.5228L79.5338 94.5916L78.789 94.9222C77.9689 95.3003 75.4791 95.3675 74.6819 95.3707C74.5853 95.3707 74.5133 95.3707 74.4723 95.3691C74.104 95.3576 73.7357 95.0122 73.7357 94.9222C73.7357 94.8731 73.6981 94.6308 73.6653 94.4229C73.6375 94.256 73.6129 94.1119 73.6129 94.1119C73.6129 94.1119 71.976 93.4031 71.1379 92.8302C70.5126 92.4046 70.6697 89.3811 70.7909 87.8604C70.8334 87.3366 70.8711 86.9912 70.8711 86.9912L77.3124 87.3677L78.216 87.4201L78.7333 87.5347L78.8708 87.5641C78.8708 87.5641 79.2408 90.2651 79.4241 90.4894C79.6074 90.7136 79.4863 91.4715 79.465 91.902C79.4641 92.0875 79.4438 92.2724 79.4045 92.4537C79.4045 92.4537 79.6696 93.2116 79.6074 93.6356C79.578 93.9338 79.6058 94.235 79.6893 94.5228Z" fill="#626696"/>
<path d="M50.6136 92.768C48.9488 92.7123 50.1765 89.2485 50.368 88.7804C50.5595 88.3122 50.0832 87.1745 50.0832 87.1745C50.0832 87.1745 49.5217 83.8728 49.5217 83.6551C49.4929 83.2051 49.4294 82.7579 49.3318 82.3177C49.25 82.0181 49.358 81.3093 49.5496 81.0081C49.7411 80.7086 49.7132 79.5087 49.7132 79.5087V77.9536L50.0832 77.4625L51.0326 78.3596L51.2962 78.6084L51.7594 80.3468L51.5957 82.8366L51.5139 85.2642L52.0868 88.6199C52.0868 88.6199 52.2783 92.822 50.6136 92.768Z" fill="#D38884"/>
<path opacity="0.1" d="M51.1326 78.7721L49.7134 78.1844V77.9537L50.0834 77.4625L51.0328 78.3596L51.1326 78.7721Z" fill="black"/>
<path d="M50.4773 75.2248C50.2955 75.6728 50.1635 76.1394 50.0836 76.6162C50.0104 77.0742 49.8862 77.5226 49.7134 77.953L51.2958 78.6078L50.4773 75.2248Z" fill="#4C4981"/>
<path opacity="0.05" d="M50.4773 75.2248C50.2955 75.6728 50.1635 76.1394 50.0836 76.6162C50.0104 77.0742 49.8862 77.5226 49.7134 77.953L51.2958 78.6078L50.4773 75.2248Z" fill="black"/>
<path d="M63.0349 109.678L62.904 109.956C62.904 109.956 62.7615 110.882 62.7615 110.904C62.7615 110.923 62.3523 111.544 62.3523 111.544L61.3227 111.763L60.8856 111.711C60.8634 111.456 60.8246 111.204 60.7694 110.954C60.753 110.884 60.7367 110.812 60.717 110.738C60.5641 110.161 60.3216 109.612 59.9984 109.11C59.9984 109.11 59.2355 107.227 58.9622 106.982C58.6888 106.736 57.6526 104.253 57.7623 103.654C57.8212 103.323 57.7738 102.221 57.7197 101.301C57.6756 100.552 57.6265 99.9215 57.6265 99.9215L60.2177 98.3876L60.5189 98.864C60.5188 98.8649 60.5189 98.8658 60.5192 98.8666C60.5195 98.8675 60.5199 98.8683 60.5206 98.8689L60.7006 99.1521C60.7006 99.1521 60.699 99.2061 60.6908 99.2961C60.6908 99.306 60.6892 99.3174 60.6892 99.3289C60.6592 99.7145 60.5817 100.095 60.4584 100.462C60.4584 100.462 60.2636 101.853 60.4584 102.099C60.6483 102.336 61.2687 105.626 61.4061 107.144C61.4111 107.191 61.4143 107.237 61.4176 107.281C61.4716 107.978 61.9038 108.601 62.3376 109.056L62.3425 109.061C62.3703 109.09 62.3998 109.119 62.4292 109.149C62.6193 109.338 62.8216 109.515 63.0349 109.678Z" fill="#D38884"/>
<path opacity="0.1" d="M60.8854 111.711L61.3225 111.763L62.3521 111.544C62.3521 111.544 62.7613 110.923 62.7613 110.904C62.7613 110.882 62.9038 109.956 62.9038 109.956L63.0347 109.678L63.0511 109.643C62.7996 109.468 62.5625 109.273 62.3423 109.06L62.3374 109.056C62.3128 109.033 62.2899 109.01 62.2653 108.985C62.2653 108.985 62.4127 109.887 61.6286 110.29C61.2488 110.485 60.9362 110.635 60.7168 110.738L60.8854 111.711Z" fill="black"/>
<path d="M63.2146 109.807L63.0673 110.12C63.0673 110.12 62.9249 111.046 62.9249 111.067C62.9249 111.087 62.5156 111.707 62.5156 111.707L61.486 111.927L60.8951 111.856C60.8885 111.737 60.8754 111.568 60.8443 111.364C60.8263 111.239 60.8018 111.102 60.769 110.954C60.9884 110.853 61.342 110.684 61.7921 110.454C62.5762 110.051 62.4289 109.149 62.4289 109.149C62.5988 109.319 62.7786 109.478 62.9674 109.627C63.0755 109.71 63.1622 109.771 63.2146 109.807Z" fill="#CEDDF9"/>
<path opacity="0.1" d="M63.215 109.807L63.0677 110.12C63.0677 110.12 62.9253 111.046 62.9253 111.067C62.9253 111.087 62.516 111.707 62.516 111.707L61.4864 111.927L60.8955 111.856C60.8889 111.737 60.8758 111.568 60.8447 111.364C60.971 111.369 61.0966 111.386 61.2196 111.414C61.2196 111.414 62.6257 111.716 62.6928 110.603C62.7321 109.971 62.8631 109.723 62.9678 109.627C63.0759 109.71 63.1626 109.771 63.215 109.807Z" fill="black"/>
<path d="M63.1115 109.734C63.1115 109.734 62.7611 109.655 62.6929 110.767C62.6247 111.879 61.2196 111.579 61.2196 111.579C61.2196 111.579 60.5307 111.408 60.5239 111.695C60.5468 111.959 60.6088 112.219 60.7081 112.465C60.7081 112.465 60.749 113.127 60.8786 113.284C61.0082 113.441 60.9263 114.027 60.9263 114.027C60.9263 114.027 60.9809 114.464 62.0654 114.027C62.0654 114.027 63.035 113.828 63.8387 112.622C63.866 112.581 63.7432 112.459 64.4458 112.206C65.1483 111.954 67.1604 110.337 67.0035 109.546C66.9887 109.415 66.9356 109.292 66.8509 109.191C66.7663 109.09 66.6538 109.017 66.5276 108.979C66.4224 108.951 66.3126 108.944 66.2046 108.958C66.0965 108.973 65.9925 109.009 65.8985 109.064C65.7087 109.166 65.5129 109.256 65.312 109.335C65.0442 109.443 64.7616 109.511 64.4737 109.534C64.2531 109.553 64.0351 109.595 63.8233 109.66C63.5871 109.73 63.2854 109.795 63.1115 109.734Z" fill="#CC8294"/>
<path d="M55.1559 102.09C55.0013 102.22 54.8682 102.374 54.7614 102.545C54.3636 103.151 54.1263 103.997 53.8562 104.362C53.5092 104.834 53.4159 105.754 53.4159 105.754C53.3242 106.358 52.0457 109.581 51.6971 110.154C51.35 110.727 50.8688 112.282 50.8688 112.282C50.5741 112.652 50.5921 113.2 50.6216 113.462C50.6281 113.508 50.633 113.544 50.6363 113.569C50.6412 113.596 50.6445 113.611 50.6445 113.611L50.6363 113.626L50.1632 114.43L48.6589 114.222L47.8813 113.693C47.9452 113.59 48.0015 113.483 48.05 113.372C48.4657 112.444 48.762 110.787 48.762 110.787C48.762 110.787 49.1811 108.895 49.15 108.455C49.1205 108.014 49.2728 106.654 49.2728 106.654C49.2728 106.654 50.4497 103.033 50.8197 102.439C50.9776 102.207 51.0755 101.94 51.1045 101.661C51.1095 101.605 51.1068 101.548 51.0963 101.493L51.6054 100.987C51.6054 100.987 55.8107 101.57 55.1559 102.09Z" fill="#D38884"/>
<path opacity="0.1" d="M50.6445 113.448C50.6445 113.448 50.6396 113.493 50.6363 113.569V113.626L50.1632 114.43L48.6589 114.222L47.8813 113.693C47.9452 113.59 48.0015 113.483 48.05 113.372C48.4281 113.264 49.294 113.57 49.294 113.57C49.294 113.57 50.2287 113.749 50.6216 113.462C50.6299 113.459 50.6377 113.454 50.6445 113.448Z" fill="black"/>
<path d="M50.2765 115.595L48.7508 115.965L47.3496 114.931L47.4216 114.348C47.5195 114.284 47.6063 114.205 47.6786 114.114C47.781 113.993 47.8509 113.848 47.8816 113.693C47.9635 113.264 49.2943 113.734 49.2943 113.734C49.2943 113.734 50.2666 113.919 50.6448 113.611C50.6185 113.894 50.6429 114.179 50.7168 114.453C50.7529 114.586 50.8316 114.704 50.9411 114.788C51.3307 115.053 50.2765 115.595 50.2765 115.595Z" fill="#CEDDF9"/>
<path opacity="0.1" d="M50.2765 115.595L48.7508 115.965L47.3496 114.931L47.4216 114.348C47.5195 114.284 47.6063 114.205 47.6786 114.114C47.7801 114.112 47.8914 114.114 47.9847 114.122C48.2205 114.143 48.7721 115.147 48.7721 115.147C50.157 115.238 50.5695 114.787 50.7168 114.453C50.7529 114.586 50.8316 114.704 50.9411 114.788C51.3307 115.053 50.2765 115.595 50.2765 115.595Z" fill="black"/>
<path d="M48.7721 115.31C48.7721 115.31 48.2196 114.307 47.9843 114.286C47.7867 114.275 47.5886 114.275 47.3909 114.286C47.3909 114.286 46.7771 115.739 46.552 115.872C46.3269 116.005 45.9995 116.691 45.9995 116.691C45.9995 116.691 47.6203 118.256 49.1886 117.959C49.6882 117.966 50.1795 118.089 50.6239 118.317C51.3503 118.696 54.3786 118.41 54.7469 117.745C55.0232 117.246 55.1325 116.883 54.8894 116.617C54.8169 116.542 54.7273 116.485 54.6282 116.451C54.5291 116.417 54.4234 116.408 54.3199 116.424C53.9387 116.476 53.0839 116.465 52.3324 115.545C52.3324 115.545 50.9513 114.279 50.8387 114.277C50.7262 114.276 50.9308 115.453 48.7721 115.31Z" fill="#CC8294"/>
<path opacity="0.1" d="M60.7006 99.3158C60.6972 99.3205 60.6934 99.3249 60.6892 99.3289C60.5959 99.4321 59.928 100.164 59.7266 100.216C59.3913 100.343 59.0634 100.488 58.7445 100.652C58.7445 100.652 58.3352 101.198 58.0078 101.225C57.9091 101.239 57.8124 101.265 57.7197 101.301C57.6756 100.552 57.6265 99.9215 57.6265 99.9215L60.2177 98.3877L60.5189 98.864C60.5188 98.8649 60.5189 98.8658 60.5192 98.8667C60.5195 98.8675 60.5199 98.8683 60.5206 98.869C60.5893 99.0621 60.6662 99.2389 60.6908 99.2962L60.7006 99.3158Z" fill="black"/>
<path d="M51.2685 88.7798C51.2685 88.7798 50.259 90.0938 51.2685 91.8399C52.2779 93.5859 53.3419 94.459 53.3419 94.459L56.7795 101.58C56.7795 101.58 57.6798 101.089 58.0072 101.061C58.3346 101.034 58.7439 100.488 58.7439 100.488C59.0629 100.325 59.3908 100.179 59.726 100.052C59.9443 99.9973 60.7005 99.1516 60.7005 99.1516C60.7005 99.1516 60.3262 98.3331 60.4081 98.1148C60.4899 97.8966 60.1625 97.3509 60.1625 97.3509C60.0627 97.0767 59.9896 96.7935 59.9443 96.5052C59.9443 96.2869 59.5896 95.7685 59.5896 95.7685C59.5896 95.7685 59.2349 95.2229 59.2349 94.9228C59.2349 94.6227 58.7166 93.4495 58.7166 93.4495L58.5802 88.2659L51.2685 88.7798Z" fill="#CEDDF9"/>
<path opacity="0.05" d="M60.7004 99.1521C60.7004 99.1521 59.9441 99.9968 59.7264 100.052C59.3911 100.179 59.0632 100.324 58.7443 100.488C58.7443 100.488 58.335 101.035 58.0076 101.061C57.7741 101.11 57.5483 101.191 57.3365 101.301C57.0435 101.436 56.7799 101.58 56.7799 101.58L53.3423 94.459C53.0417 94.1963 52.7626 93.91 52.5075 93.6029C52.0413 93.0544 51.6265 92.4643 51.2683 91.8399C50.8745 91.207 50.7347 90.4485 50.8771 89.7168C50.9409 89.3808 51.0742 89.0619 51.2683 88.7804L53.7139 88.6085L58.5806 88.2664L58.6215 89.7986L58.7164 93.449C58.7164 93.449 58.7966 93.6323 58.8949 93.873C59.0455 94.2413 59.2353 94.7405 59.2353 94.9222C59.2353 95.2234 59.5889 95.7685 59.5889 95.7685C59.5889 95.7685 59.9441 96.2875 59.9441 96.5052C59.9894 96.7936 60.0623 97.077 60.1619 97.3515C60.1619 97.3515 60.4893 97.8966 60.4074 98.1143C60.3256 98.3336 60.7004 99.1521 60.7004 99.1521Z" fill="black"/>
<path opacity="0.1" d="M55.1558 102.09C55.0012 102.22 54.8681 102.374 54.7613 102.545C53.2766 102.652 51.5513 101.876 51.1044 101.661C51.1094 101.605 51.1067 101.548 51.0962 101.493L51.6053 100.987C51.6053 100.987 55.8106 101.57 55.1558 102.09Z" fill="black"/>
<path d="M59.535 90.3944C59.535 90.3944 59.3173 91.1572 59.2355 91.4846C59.1536 91.812 58.9899 93.4228 58.9899 93.4228L58.895 93.8729L57.3366 101.301L56.9978 102.917C56.397 103.244 54.8976 102.37 54.8976 102.37C53.151 102.562 50.9951 101.444 50.9951 101.444C50.9951 101.444 51.3503 100.298 51.2685 99.725C51.1866 99.1521 51.7596 98.6872 51.7596 98.6872C51.6237 98.1699 52.1131 95.9044 52.1131 95.9044C52.1131 95.9044 52.2228 95.0597 52.6321 94.8404C53.0413 94.6227 52.578 94.2953 52.4684 94.1037C52.4143 94.0104 52.4536 93.796 52.5077 93.6028C52.5429 93.477 52.5844 93.353 52.6321 93.2313C51.5926 92.1918 51.4322 90.5647 51.4305 89.6627C51.428 89.4425 51.4379 89.2222 51.46 89.003L53.7141 88.6085L58.6347 87.7475L59.1356 89.2928V89.296L59.2617 89.684L59.535 90.3944Z" fill="#CEDDF9"/>
<path opacity="0.1" d="M59.0715 69.5234C58.9668 69.743 58.8909 69.9752 58.8456 70.2142C58.8325 70.2748 58.8194 70.3386 58.8047 70.4041C58.33 70.7118 58.0364 70.7144 57.4291 70.7144C57.2196 70.7144 57.1035 70.3141 56.9054 70.2731C56.9054 70.2731 56.6083 69.2021 56.5231 70.1049C55.9518 69.987 55.4588 70.4335 55.0545 70.0439L55.0479 70.0374C55.0512 69.985 55.0528 69.9326 55.0545 69.8803C55.0645 69.5423 55.0481 69.204 55.0054 68.8686C55.0054 68.8686 56.5948 68.8588 57.7914 68.9963C58.5968 69.0896 59.2254 69.2484 59.0715 69.5234Z" fill="black"/>
<path d="M60.1976 67.6867C60.1975 68.1379 60.0971 68.5833 59.9035 68.9908C59.7099 69.3983 59.4281 69.7576 59.0785 70.0426C58.7289 70.3277 58.3202 70.5314 57.8821 70.6389C57.444 70.7464 56.9874 70.7551 56.5455 70.6644C56.5455 70.6644 56.5439 70.6627 56.5439 70.6644C55.981 70.5482 55.4625 70.2748 55.0487 69.8759C54.6348 69.4769 54.3426 68.9689 54.2059 68.4106C54.0692 67.8522 54.0936 67.2666 54.2762 66.7216C54.4589 66.1766 54.7924 65.6946 55.238 65.3315C55.6835 64.9683 56.2229 64.739 56.7936 64.6701C57.3642 64.6011 57.9427 64.6954 58.462 64.942C58.9812 65.1886 59.4199 65.5773 59.7271 66.0632C60.0343 66.549 60.1974 67.1119 60.1976 67.6867Z" fill="#D38884"/>
<path opacity="0.1" d="M58.5331 72.4633C58.5101 72.7171 58.4987 72.8791 58.4987 72.8791C58.4987 72.8791 53.614 72.5517 54.4603 71.7333C54.6773 71.506 54.8313 71.2262 54.9072 70.9213L57.0254 71.2684C57.0254 71.2684 57.6246 71.7333 58.0894 72.1687C58.2225 72.2876 58.3719 72.3868 58.5331 72.4633Z" fill="black"/>
<path opacity="0.1" d="M59.2619 89.8477C59.0474 89.8753 58.8296 89.8586 58.6218 89.7986C58.5307 89.7711 58.4433 89.7327 58.3616 89.684C57.9523 89.4385 56.5887 89.7397 56.5887 89.7397C56.5887 89.7397 52.8778 89.9852 52.7141 89.7397C52.6208 89.5989 51.9677 89.6202 51.4307 89.6627C51.213 89.6807 51.0133 89.702 50.8774 89.7167C50.9413 89.3808 51.0745 89.0619 51.2687 88.7804L53.7143 88.6085L58.6349 87.7475L59.1358 89.2928V89.296C59.1931 89.612 59.2619 89.8477 59.2619 89.8477Z" fill="black"/>
<path d="M57.0254 71.4325L54.3625 70.996C54.3156 71.1009 54.2464 71.1943 54.1597 71.2697C54.0731 71.345 53.971 71.4006 53.8607 71.4325C53.506 71.5144 51.9236 72.3329 51.2143 73.315L50.5049 74.2972C50.5049 74.2972 49.932 75.0066 50.123 75.5795C50.3139 76.1524 50.5322 78.0895 50.5322 78.0895L50.805 80.2448C50.805 80.2448 51.3234 81.7999 51.1597 82.4819C50.996 83.164 51.2415 86.0286 51.2415 86.0286L50.6959 89.5754C50.6959 89.5754 52.5511 89.3298 52.7148 89.5754C52.8785 89.8209 56.5889 89.5754 56.5889 89.5754C56.5889 89.5754 57.953 89.2753 58.3623 89.5208C58.6375 89.6693 58.9527 89.7266 59.2626 89.6845C59.2626 89.6845 58.9352 88.5659 59.1262 87.9384C59.3171 87.3109 59.2626 86.1651 59.2626 86.1651C59.2626 86.1651 59.5354 84.5008 59.399 84.2007C59.2626 83.9006 59.6991 82.8093 59.6991 82.8093L61.1451 75.1975C61.1451 75.1975 60.97 73.8334 60.1981 73.3696C59.4263 72.9058 58.5532 72.7694 58.0894 72.3329C57.6256 71.8964 57.0254 71.4325 57.0254 71.4325Z" fill="#4C4981"/>
<path d="M58.2529 78.9352V79.8356L59.0947 82.1L59.3988 84.2007C59.3988 84.2007 59.9444 85.7013 59.9444 86.2196C59.9444 86.738 61.2813 89.248 61.2813 89.248C61.2813 89.248 61.6457 90.0937 61.4635 90.2574C61.2813 90.4211 59.6989 94.0224 61.6905 93.9133C63.6821 93.8042 63.0546 90.0392 63.0546 90.0392L62.7818 88.4022C62.7818 88.4022 62.3999 84.3099 62.3999 84.0098C62.3999 84.0098 61.9088 82.2637 61.8542 81.8817C61.7996 81.4998 61.445 79.5627 61.445 79.5627L61.1449 78.3077L58.2529 78.9352Z" fill="#D38884"/>
<path opacity="0.1" d="M57.3043 81.7726L54.3373 83.471L53.4165 84.8624L54.6441 83.6143L57.3043 81.7726Z" fill="black"/>
<path opacity="0.1" d="M56.4044 85.0261C56.4044 85.0261 55.0539 85.906 54.4196 85.906C53.7853 85.906 52.312 87.4202 52.312 87.4202C52.312 87.4202 54.3991 86.0721 54.5628 86.1118C54.7265 86.1515 56.4044 85.0261 56.4044 85.0261Z" fill="black"/>
<path opacity="0.1" d="M52.9464 85.4966C52.9464 85.4966 51.6778 86.6425 52.0052 86.7653C52.3325 86.888 54.0309 85.4966 54.0309 85.4966H52.9464Z" fill="black"/>
<path opacity="0.1" d="M58.5524 81.4044C58.5524 81.4044 57.5702 82.7344 57.8362 82.7139C58.1022 82.6934 58.8593 81.9364 58.8593 81.9364L58.5524 81.4044Z" fill="black"/>
<path opacity="0.1" d="M58.6961 82.7141C58.6961 82.7141 57.6321 83.9211 57.673 84.2281C57.7139 84.535 58.6961 82.7141 58.6961 82.7141Z" fill="black"/>
<path opacity="0.1" d="M58.9623 83.3175C58.9623 83.3175 58.2461 84.5964 58.553 84.8624C58.86 85.1284 58.9623 83.3175 58.9623 83.3175Z" fill="black"/>
<path opacity="0.1" d="M58.0417 80.0334C58.0417 80.0334 57.5097 80.9337 57.8985 80.9951C58.2872 81.0565 58.3258 80.9951 58.3258 80.9951L58.0417 80.0334Z" fill="black"/>
<path opacity="0.1" d="M58.1847 76.739C58.0516 77.2896 57.8691 77.827 57.6396 78.3449C57.5535 78.0806 57.4825 77.8117 57.4268 77.5395C57.6524 77.2484 57.9063 76.9802 58.1847 76.739Z" fill="black"/>
<path opacity="0.1" d="M59.8084 66.1987C59.7552 66.3139 59.6857 66.4209 59.6021 66.5163C59.4625 66.6425 59.3383 66.7849 59.2322 66.9403C59.1176 67.158 59.1389 67.4199 59.0996 67.6638C59.0603 67.9061 58.9064 68.1762 58.6609 68.1843C58.5349 68.1723 58.4125 68.1356 58.3008 68.0763C58.2451 68.0469 58.1828 68.0325 58.12 68.0345C58.0571 68.0365 57.9959 68.0549 57.9423 68.0878C57.8709 68.1598 57.83 68.2565 57.8277 68.3578C57.7969 68.5692 57.7848 68.7828 57.7917 68.9963C57.7933 69.0814 57.7982 69.1649 57.8064 69.25C57.8326 69.5234 57.8866 69.818 57.7573 70.0619C57.64 70.25 57.4622 70.3926 57.2531 70.4662C57.0265 70.5612 56.789 70.6278 56.546 70.6643C56.546 70.6643 56.5443 70.6627 56.5443 70.6643C56.0817 70.7214 55.615 70.7368 55.1496 70.7102C55.1073 70.7111 55.0652 70.7044 55.0252 70.6905C55.0054 70.6822 54.9871 70.6706 54.9712 70.6561C55.021 70.4003 55.0489 70.1408 55.0547 69.8802C54.7393 69.5779 54.4928 69.2111 54.332 68.8049C54.1712 68.3987 54.0999 67.9625 54.1229 67.5262C54.1459 67.09 54.2626 66.6638 54.4653 66.2767C54.6679 65.8896 54.9516 65.5508 55.297 65.2833C55.6424 65.0158 56.0414 64.8259 56.4669 64.7265C56.8923 64.6272 57.3342 64.6207 57.7624 64.7076C58.1905 64.7945 58.5949 64.9727 58.948 65.23C59.3011 65.4873 59.5946 65.8177 59.8084 66.1987V66.1987Z" fill="black"/>
<path d="M58.5365 63.618C58.2575 63.5894 57.9946 63.7385 57.7207 63.799C57.1544 63.9241 56.5751 63.6661 55.9952 63.6682C55.4959 63.696 55.0101 63.8409 54.5772 64.0913C54.2262 64.2567 53.9059 64.4808 53.6303 64.754C53.3536 65.031 53.1927 65.403 53.1804 65.7943C53.1823 66.0197 53.2463 66.2557 53.16 66.4638C53.1005 66.5748 53.0313 66.6804 52.9534 66.7793C52.881 66.8944 52.8347 67.024 52.818 67.1589C52.8013 67.2938 52.8146 67.4308 52.8568 67.5601C52.9459 67.8265 53.1505 68.0348 53.3226 68.2569C53.6956 68.7382 53.9303 69.3112 54.2652 69.8198C54.411 70.0412 54.5754 70.2499 54.7567 70.4434C54.7855 70.4784 54.8213 70.507 54.8617 70.5274C54.9016 70.5415 54.9437 70.548 54.9859 70.5466C55.6974 70.5666 56.4349 70.5821 57.0893 70.3023C57.2984 70.2288 57.4763 70.0863 57.5937 69.8983C57.7221 69.6543 57.6693 69.3601 57.6431 69.0856C57.6147 68.7885 57.6214 68.4891 57.6632 68.1935C57.6666 68.0925 57.7076 67.9964 57.778 67.9239C57.832 67.8913 57.8934 67.8732 57.9564 67.8713C58.0194 67.8693 58.0818 67.8837 58.1377 67.9129C58.2488 67.9725 58.3708 68.009 58.4964 68.0203C58.7429 68.0117 58.897 67.7431 58.9363 67.4996C58.9756 67.2561 58.9535 66.9945 59.069 66.7765C59.1748 66.621 59.299 66.4789 59.4389 66.3532C59.6072 66.1388 59.7228 65.8879 59.7762 65.6206C59.8296 65.3534 59.8194 65.0773 59.7463 64.8147C59.5946 64.3079 59.0995 63.6755 58.5365 63.618Z" fill="#1E1637"/>
<path d="M72.7939 72.0941C74.2517 72.0941 75.4334 70.9124 75.4334 69.4546C75.4334 67.9968 74.2517 66.815 72.7939 66.815C71.3361 66.815 70.1543 67.9968 70.1543 69.4546C70.1543 70.9124 71.3361 72.0941 72.7939 72.0941Z" fill="#FFD2C6"/>
<path d="M71.5054 70.5563C71.5054 70.5563 71.6895 73.056 71.178 73.6289C70.6665 74.2018 69.3364 75.2863 69.3364 75.2863L69.7457 76.9846L72.0578 77.2506L74.7588 74.3655L74.145 73.6084C74.145 73.6084 73.6743 72.0124 74.0631 71.2144C74.4519 70.4164 71.5054 70.5563 71.5054 70.5563Z" fill="#FFD2C6"/>
<path opacity="0.1" d="M77.0914 76.0482V76.0499L76.949 76.2692L76.1305 76.0433L75.5576 73.8989L75.592 73.2769L75.7606 73.0346C75.7606 73.0346 76.6609 73.0559 76.6216 73.8744C76.584 74.5946 76.9932 75.7749 77.0914 76.0482Z" fill="black"/>
<path opacity="0.1" d="M78.8706 87.8915C78.8706 87.8915 78.2191 88.0372 77.4743 88.1338C76.718 88.232 75.8668 88.2811 75.5148 88.0749C74.9223 87.7246 71.7122 87.8244 70.7906 87.8604C70.7251 87.8621 70.6728 87.8653 70.6318 87.867L70.8708 86.9912H77.2336L77.3122 87.3677L78.2158 87.4201L78.7331 87.5347C78.8182 87.7475 78.8706 87.8915 78.8706 87.8915Z" fill="black"/>
<path d="M75.5975 73.1991C75.5975 73.1991 76.4978 73.2196 76.4569 74.038C76.416 74.8565 76.948 76.2684 76.948 76.2684L76.7434 76.739C76.7434 76.739 76.4569 77.8849 76.682 78.1713C76.9071 78.4578 77.7255 78.4578 77.2549 80.8109C77.2549 80.8109 77.1531 82.5706 77.3984 83.1435C77.6437 83.7165 77.6437 85.0874 78.012 85.6603C78.3803 86.2333 78.8714 87.5633 78.8714 87.5633C78.8714 87.5633 76.2114 88.1567 75.5156 87.7474C74.8199 87.3382 70.5434 87.5428 70.5434 87.5428C70.5434 87.5428 70.5639 86.8267 70.5434 86.7448C70.5245 86.6554 70.5238 86.5632 70.5414 86.4735C70.559 86.3838 70.5945 86.2987 70.6457 86.223C70.789 86.0287 71.0141 85.7013 70.8913 85.4148C70.7685 85.1283 71.1982 84.707 70.9731 84.2629C70.7481 83.8188 70.4736 83.7311 70.529 83.4885C70.5844 83.2459 70.4411 82.9189 70.2774 82.7141C70.1137 82.5092 69.0088 80.3468 69.0088 80.3468L68.8246 79.3376C68.8246 79.3376 67.4005 78.2941 67.4271 77.803C67.4537 77.3119 67.9652 76.6316 67.9652 76.6316L69.3362 75.2862C69.3362 75.2862 70.0933 76.1047 70.8299 75.8182C71.5665 75.5317 73.1491 74.1608 73.1491 74.1608C73.1491 74.1608 73.715 73.8539 73.7559 73.6288C73.7969 73.4037 74.1447 73.6083 74.1447 73.6083C74.1447 73.6083 74.6563 73.3277 74.7586 73.4271C74.8609 73.5265 75.311 73.6083 75.311 73.6083L75.5975 73.1991Z" fill="#FFCDE5"/>
<path d="M67.8629 77.462L67.4271 77.803C67.4271 77.803 66.983 78.601 66.8807 80.0333C66.7784 81.4657 66.3282 83.4885 66.3282 83.4885L65.4688 85.026C65.4688 85.026 64.057 87.9909 63.8728 88.7797C63.6887 89.5686 62.8497 90.8986 62.8497 90.8986C62.8497 90.8986 60.0055 93.4543 61.9903 93.9157C63.9751 94.3771 64.0365 91.8807 64.0365 91.8807C64.0365 91.8807 64.4991 91.3692 64.5747 91.0213C64.6504 90.6735 67.1672 86.223 67.1672 86.223C67.1672 86.223 68.047 85.026 67.8629 84.3917C67.8629 84.3917 69.0087 81.6978 69.0087 81.0223C68.9874 80.4571 68.9259 79.8941 68.8246 79.3376L69.0087 77.9258L67.8629 77.462Z" fill="#FFD2C6"/>
<path opacity="0.1" d="M73.7558 83.1027C73.7558 83.1027 71.7505 84.1523 71.3618 84.2076C70.973 84.2629 73.0601 83.9825 73.0601 83.9825L73.7558 83.1027Z" fill="black"/>
<path opacity="0.1" d="M75.3928 83.9211C75.3928 83.9211 72.7327 84.8215 71.5664 84.6578C71.5664 84.6578 74.472 85.2102 75.3928 83.9211Z" fill="black"/>
<path opacity="0.1" d="M75.5566 84.2148C75.5566 84.2148 73.1622 85.7218 71.7505 85.4762C71.7505 85.4762 75.045 86.131 75.5566 85.7832L74.0833 85.3739C74.0833 85.3739 75.7203 84.5085 75.5566 84.2148Z" fill="black"/>
<path opacity="0.1" d="M72.7974 64.8102C72.1062 64.6707 71.3379 64.7558 70.7835 65.1917C70.3735 65.5141 70.101 66.0071 69.6384 66.2482C69.3946 66.3505 69.1449 66.4383 68.8906 66.5112C68.4422 66.6944 68.0684 67.0232 67.8293 67.4446C67.5903 67.8659 67.4999 68.3555 67.5727 68.8344C67.645 69.2394 67.8349 69.6144 67.9286 70.015C68.0956 70.729 67.9486 71.4765 67.7674 72.1871C67.2638 74.1601 66.4992 76.057 65.4937 77.8277C65.4137 77.9372 65.374 78.0708 65.3812 78.2062C65.4052 78.2978 65.4532 78.3814 65.5203 78.4483C66.4662 79.541 68.005 79.9162 69.4494 79.9657C69.9818 79.9839 70.5382 79.9605 71.0069 79.7074C71.3084 79.5338 71.5677 79.2956 71.7662 79.01C72.2675 78.3222 72.5162 77.4826 72.4704 76.6328C72.4312 75.9473 72.2009 75.2524 72.3742 74.588C72.3927 74.4953 72.435 74.409 72.4968 74.3375C72.6525 74.1786 72.9111 74.2204 73.1321 74.1948C73.7327 74.1251 74.1204 73.4914 74.1916 72.8911C74.2627 72.2907 74.1135 71.6868 74.1098 71.0823C74.107 70.2834 74.3567 69.504 74.8234 68.8556C75.023 68.5797 75.2782 68.31 75.3456 67.9646C75.4299 67.5333 75.1803 67.2168 74.9643 66.8751C74.6291 66.3448 74.4647 65.7247 73.9537 65.32C73.6135 65.0619 73.2175 64.8873 72.7974 64.8102Z" fill="black"/>
<path d="M72.6339 64.6466C71.9426 64.507 71.1743 64.5921 70.62 65.028C70.2099 65.3504 69.9374 65.8434 69.4749 66.0845C69.231 66.1868 68.9813 66.2746 68.7271 66.3475C68.2786 66.5308 67.9048 66.8595 67.6657 67.2809C67.4267 67.7022 67.3363 68.1918 67.4091 68.6707C67.4814 69.0757 67.6713 69.4507 67.765 69.8513C67.932 70.5653 67.785 71.3128 67.6038 72.0234C67.1002 73.9964 66.3356 75.8933 65.3301 77.664C65.2501 77.7735 65.2104 77.9071 65.2176 78.0425C65.2416 78.1341 65.2897 78.2177 65.3567 78.2846C66.3026 79.3773 67.8415 79.7525 69.2859 79.802C69.8182 79.8202 70.3747 79.7968 70.8434 79.5437C71.1448 79.3701 71.4041 79.1319 71.6027 78.8463C72.1039 78.1585 72.3526 77.3189 72.3068 76.4691C72.2676 75.7836 72.0373 75.0887 72.2106 74.4243C72.2291 74.3316 72.2714 74.2453 72.3333 74.1738C72.4889 74.0149 72.7476 74.0567 72.9686 74.0311C73.5691 73.9614 73.9568 73.3277 74.028 72.7274C74.0992 72.127 73.9499 71.5231 73.9462 70.9186C73.9434 70.1197 74.1932 69.3403 74.6598 68.6919C74.8594 68.416 75.1146 68.1463 75.1821 67.8009C75.2663 67.3696 75.0167 67.0531 74.8007 66.7114C74.4655 66.1811 74.3012 65.561 73.7901 65.1563C73.45 64.8982 73.0539 64.7236 72.6339 64.6466Z" fill="#985C7E"/>
<path opacity="0.1" d="M61.4586 76.5605C61.349 76.9959 61.4586 77.6786 61.4586 77.6786C61.4308 77.9781 61.4586 79.6429 61.4586 79.6429C60.5583 79.3695 58.2666 79.9163 58.2666 79.9163L57.9932 79.0978C57.8385 78.8969 57.7229 78.6687 57.6527 78.425C57.5667 78.1608 57.4957 77.8919 57.4399 77.6196C57.3209 77.0534 57.2313 76.4813 57.1715 75.9057C57.0585 75.0382 58.3484 74.1051 59.3241 73.5862C60.2997 73.0673 61.1575 75.2771 61.1575 75.2771C61.1575 75.2771 61.5667 76.1235 61.4586 76.5605Z" fill="black"/>
<path d="M61.4586 76.3967C61.349 76.8322 61.4586 77.5148 61.4586 77.5148C61.4308 77.8143 61.4586 79.4791 61.4586 79.4791C60.5583 79.2057 58.2666 79.7525 58.2666 79.7525L57.9932 78.934C57.8385 78.7331 57.7229 78.5049 57.6527 78.2612C57.5667 77.997 57.4957 77.7281 57.4399 77.4559C57.3209 76.8896 57.2313 76.3175 57.1715 75.742C57.0585 74.8744 58.3484 73.9413 59.3241 73.4224C60.2997 72.9035 61.1575 75.1134 61.1575 75.1134C61.1575 75.1134 61.5667 75.9597 61.4586 76.3967Z" fill="#4C4981"/>
<path opacity="0.1" d="M71.7505 90.2302C71.7505 90.2302 72.2762 92.6856 73.1491 93.3541L71.7505 90.2302Z" fill="black"/>
<path opacity="0.2" d="M59.7273 64.8148C59.6791 64.6607 59.6112 64.5134 59.5253 64.3766C59.5397 64.414 59.5528 64.4511 59.5636 64.4874C59.6367 64.75 59.6469 65.0261 59.5935 65.2933C59.5401 65.5606 59.4246 65.8115 59.2562 66.0258C59.1163 66.1515 58.9921 66.2937 58.8863 66.4492C58.7708 66.6672 58.793 66.9288 58.7536 67.1723C58.7143 67.4158 58.5602 67.6844 58.3137 67.6929C58.1881 67.6817 58.0661 67.6452 57.955 67.5856C57.8992 67.5563 57.8367 67.542 57.7737 67.5439C57.7107 67.5459 57.6493 67.564 57.5953 67.5965C57.5249 67.669 57.484 67.7652 57.4805 67.8662C57.4388 68.1617 57.432 68.4612 57.4604 68.7583C57.4867 69.0327 57.5394 69.327 57.411 69.571C57.2936 69.759 57.1157 69.9015 56.9066 69.975C56.2522 70.2547 55.5147 70.2393 54.8032 70.2192C54.761 70.2207 54.7189 70.2142 54.679 70.2001C54.6386 70.1797 54.6028 70.1511 54.574 70.1161C54.3928 69.9225 54.2283 69.7139 54.0825 69.4925C53.7476 68.9839 53.5129 68.4108 53.1399 67.9295C53.0378 67.7977 52.9247 67.6706 52.8306 67.5334C52.8332 67.5423 52.8349 67.5514 52.8378 67.5601C52.927 67.8266 53.1315 68.0348 53.3036 68.2569C53.6766 68.7382 53.9113 69.3113 54.2462 69.8198C54.392 70.0413 54.5565 70.2499 54.7377 70.4435C54.7665 70.4785 54.8023 70.5071 54.8427 70.5275C54.8826 70.5416 54.9247 70.548 54.9669 70.5466C55.6784 70.5667 56.4159 70.5821 57.0703 70.3024C57.2794 70.2289 57.4573 70.0864 57.5747 69.8984C57.7031 69.6544 57.6504 69.3601 57.6241 69.0857C57.5957 68.7885 57.6025 68.4891 57.6442 68.1936C57.6477 68.0926 57.6886 67.9964 57.759 67.9239C57.813 67.8914 57.8744 67.8732 57.9374 67.8713C58.0004 67.8694 58.0629 67.8837 58.1187 67.913C58.2298 67.9726 58.3518 68.0091 58.4774 68.0203C58.7239 68.0118 58.878 67.7432 58.9173 67.4997C58.9566 67.2562 58.9345 66.9945 59.05 66.7766C59.1558 66.6211 59.28 66.4789 59.4199 66.3532C59.5882 66.1389 59.7038 65.888 59.7572 65.6207C59.8106 65.3534 59.8004 65.0774 59.7273 64.8148Z" fill="black"/>
<g opacity="0.1">
<path opacity="0.1" d="M67.5649 69.2208C67.5373 69.1245 67.5056 69.0293 67.4727 68.9344C67.5004 69.0306 67.5319 69.1259 67.5649 69.2208Z" fill="black"/>
<path opacity="0.1" d="M75.0301 67.0777C75.0368 67.1552 75.033 67.2333 75.0187 67.3098C74.9512 67.6552 74.6961 67.9249 74.4965 68.2008C74.0298 68.8492 73.7801 69.6286 73.7829 70.4275C73.7866 71.032 73.9359 71.6359 73.8647 72.2363C73.7935 72.8366 73.4058 73.4703 72.8052 73.54C72.5842 73.5656 72.3256 73.5238 72.1699 73.6827C72.1081 73.7542 72.0658 73.8405 72.0473 73.9332C71.874 74.5976 72.1043 75.2925 72.1435 75.978C72.1893 76.8278 71.9406 77.6674 71.4393 78.3552C71.2408 78.6408 70.9815 78.879 70.68 79.0526C70.2114 79.3058 69.6549 79.3291 69.1225 79.3109C67.7017 79.2622 66.1908 78.8968 65.2416 77.8448C65.2162 77.9074 65.208 77.9757 65.218 78.0425C65.242 78.1341 65.29 78.2177 65.3571 78.2845C66.303 79.3773 67.8418 79.7525 69.2862 79.802C69.8186 79.8202 70.3751 79.7968 70.8437 79.5437C71.1452 79.3701 71.4044 79.1319 71.603 78.8463C72.1043 78.1585 72.353 77.3189 72.3072 76.4691C72.268 75.7836 72.0377 75.0887 72.211 74.4243C72.2295 74.3316 72.2718 74.2453 72.3336 74.1738C72.4893 74.0149 72.7479 74.0567 72.9689 74.0311C73.5694 73.9614 73.9572 73.3277 74.0284 72.7274C74.0996 72.127 73.9503 71.5231 73.9466 70.9186C73.9438 70.1197 74.1935 69.3403 74.6602 68.6919C74.8598 68.416 75.1149 68.1463 75.1824 67.8009C75.224 67.5492 75.1696 67.2912 75.0301 67.0777Z" fill="black"/>
</g>
<path d="M20.1652 111.181C20.1652 111.181 14.467 114.125 17.4109 117.594C17.4109 117.594 17.6877 118.351 18.4893 118.293C18.4893 118.293 18.329 118.002 18.9411 117.768C19.1581 117.684 19.3645 117.574 19.5558 117.441C19.8148 117.262 20.0082 117.004 20.1069 116.705C20.1069 116.705 21.2728 115.145 20.3692 112.26C20.3692 112.26 20.4858 111.444 20.3838 111.312L19.6916 112.262C19.6916 112.262 20.4075 112.743 20.4895 113.447C20.4895 113.447 19.7438 112.264 19.5823 112.398C19.5495 112.426 19.238 112.917 19.238 112.917C19.238 112.917 20.4785 113.759 20.5714 114.852C20.5714 114.852 19.8719 113.322 19.1178 113.103L18.6915 113.874C18.6915 113.874 20.0468 114.699 20.1998 115.94C20.1998 115.94 19.4129 114.366 18.6095 114.049L18.2925 114.863C18.2925 114.863 19.5987 115.694 19.7189 116.726C19.7189 116.726 18.6259 115 18.2324 115.054C18.2324 115.054 17.9865 115.819 18.0193 116.054C18.0193 116.054 18.9429 116.672 18.9593 117.278C18.9593 117.278 18.1067 116.202 17.9756 116.273C17.9756 116.273 17.9209 117.355 18.1832 117.918C18.1832 117.918 17.7351 117.115 17.8062 116.273C17.542 116.507 17.352 116.812 17.2597 117.153C17.2597 117.153 17.0137 116.557 17.8226 116.011C17.8226 116.011 17.8991 115.169 17.992 115.065C17.992 115.065 17.1176 115.491 16.7459 116.016C16.7459 116.016 16.8826 115.235 18.0685 114.847L18.3691 114.021C18.3691 114.021 17.1831 114.524 16.817 114.967C16.817 114.967 17.0799 114.191 18.462 113.819L18.8718 113.059C18.8718 113.059 17.8171 113.415 17.3034 113.819C17.3034 113.819 17.7023 113.152 18.9975 112.846L19.3309 112.371C19.3309 112.371 18.5658 112.644 18.3527 112.743C18.1395 112.841 18.0958 112.792 18.0958 112.792C18.4865 112.461 18.9614 112.245 19.4675 112.169C19.4675 112.169 20.218 111.232 20.1652 111.181Z" fill="white"/>
<path d="M116.518 107.219C116.518 107.219 110.82 110.163 113.763 113.632C113.763 113.632 114.04 114.389 114.842 114.331C114.842 114.331 114.682 114.04 115.294 113.806C115.511 113.722 115.717 113.612 115.908 113.479C116.167 113.3 116.361 113.042 116.459 112.743C116.459 112.743 117.625 111.183 116.722 108.298C116.722 108.298 116.838 107.482 116.736 107.35L116.044 108.3C116.044 108.3 116.76 108.78 116.842 109.485C116.842 109.485 116.096 108.302 115.935 108.436C115.902 108.463 115.591 108.955 115.591 108.955C115.591 108.955 116.831 109.797 116.924 110.89C116.924 110.89 116.224 109.36 115.47 109.141L115.044 109.912C115.044 109.912 116.399 110.737 116.552 111.977C116.552 111.977 115.765 110.404 114.962 110.087L114.645 110.901C114.645 110.901 115.951 111.732 116.071 112.764C116.071 112.764 114.978 111.038 114.585 111.092C114.585 111.092 114.339 111.857 114.372 112.092C114.372 112.092 115.295 112.71 115.312 113.316C115.312 113.316 114.459 112.24 114.328 112.311C114.328 112.311 114.273 113.393 114.536 113.956C114.536 113.956 114.088 113.152 114.159 112.311C113.895 112.544 113.705 112.85 113.612 113.191C113.612 113.191 113.366 112.595 114.175 112.049C114.175 112.049 114.252 111.207 114.345 111.103C114.345 111.103 113.47 111.529 113.098 112.054C113.098 112.054 113.235 111.273 114.421 110.884L114.722 110.059C114.722 110.059 113.536 110.562 113.17 111.005C113.17 111.005 113.432 110.229 114.814 109.857L115.224 109.097C115.224 109.097 114.17 109.453 113.656 109.857C113.656 109.857 114.055 109.19 115.35 108.884L115.683 108.409C115.683 108.409 114.918 108.682 114.705 108.78C114.492 108.879 114.448 108.83 114.448 108.83C114.839 108.499 115.314 108.283 115.82 108.207C115.82 108.207 116.571 107.27 116.518 107.219Z" fill="white"/>
<path d="M140.723 109.792C140.723 109.792 135.025 112.735 137.969 116.204C137.969 116.204 138.246 116.962 139.047 116.903C139.047 116.903 138.887 116.612 139.499 116.379C139.716 116.294 139.923 116.184 140.114 116.052C140.373 115.873 140.566 115.614 140.665 115.315C140.665 115.315 141.831 113.756 140.927 110.87C140.927 110.87 141.044 110.054 140.942 109.923L140.25 110.872C140.25 110.872 140.966 111.353 141.048 112.058C141.048 112.058 140.302 110.874 140.14 111.008C140.108 111.036 139.796 111.528 139.796 111.528C139.796 111.528 141.037 112.369 141.13 113.462C141.13 113.462 140.43 111.932 139.676 111.713L139.25 112.484C139.25 112.484 140.605 113.309 140.758 114.55C140.758 114.55 139.971 112.976 139.168 112.659L138.851 113.473C138.851 113.473 140.157 114.304 140.277 115.337C140.277 115.337 139.184 113.61 138.791 113.664C138.791 113.664 138.545 114.43 138.577 114.665C138.577 114.665 139.501 115.282 139.517 115.889C139.517 115.889 138.665 114.812 138.534 114.883C138.534 114.883 138.479 115.965 138.741 116.528C138.741 116.528 138.293 115.725 138.364 114.883C138.1 115.117 137.91 115.423 137.818 115.763C137.818 115.763 137.572 115.167 138.381 114.621C138.381 114.621 138.457 113.779 138.55 113.675C138.55 113.675 137.676 114.102 137.304 114.626C137.304 114.626 137.441 113.845 138.627 113.457L138.927 112.632C138.927 112.632 137.741 113.134 137.375 113.577C137.375 113.577 137.638 112.801 139.02 112.429L139.43 111.67C139.43 111.67 138.375 112.025 137.861 112.429C137.861 112.429 138.26 111.763 139.556 111.457L139.889 110.981C139.889 110.981 139.124 111.254 138.911 111.353C138.698 111.451 138.654 111.402 138.654 111.402C139.045 111.071 139.519 110.856 140.026 110.779C140.026 110.779 140.776 109.843 140.723 109.792Z" fill="white"/>
<path d="M99.2541 77.8175L98.9419 77.4373C99.5565 76.9327 99.5857 73.8136 99.2782 72.1222C99.0649 70.9487 99.0325 69.9424 99.179 69.0458C99.4123 67.6183 100.096 66.5613 101.212 65.9043C103.526 64.5412 104.914 60.8021 104.927 60.7645L105.39 60.9332C105.331 61.0935 103.929 64.875 101.461 66.3282C99.8213 67.2942 99.2497 69.2139 99.7622 72.0342C100.004 73.3632 100.207 77.0349 99.2541 77.8175Z" fill="#D4D5E0"/>
<path d="M112.101 58.9236C113.609 55.2218 112.314 51.1947 109.207 49.9289C106.101 48.6631 102.36 50.6379 100.851 54.3397C99.3865 57.9339 100.565 61.8346 103.479 63.2169C103.283 63.5755 102.988 63.8699 102.629 64.0648C101.998 64.3594 104.048 64.6432 104.048 64.6432C104.051 64.2567 104.116 63.8732 104.242 63.5075C107.24 64.3863 110.672 62.43 112.101 58.9236Z" fill="white"/>
<path opacity="0.2" d="M101.45 57.7762C101.52 56.1781 102.485 54.9096 103.639 54.8531C103.589 54.8463 103.539 54.8415 103.488 54.8393C102.268 54.7864 101.22 56.0954 101.148 57.7631C101.077 59.3823 101.952 60.7442 103.12 60.8704C103.1 60.9916 101.38 59.3928 101.45 57.7762Z" fill="white"/>
<path d="M118.047 102.874L117.735 102.494C118.35 101.99 118.379 98.8705 118.071 97.179C117.858 96.0055 117.825 94.9992 117.972 94.1026C118.205 92.6751 118.889 91.6181 120.005 90.9611C122.319 89.5981 123.707 85.8589 123.72 85.8214L124.182 85.9901C124.124 86.1503 122.722 89.9318 120.254 91.385C118.614 92.351 118.043 94.2708 118.555 97.091C118.797 98.42 119 102.092 118.047 102.874Z" fill="#D4D5E0"/>
<path d="M130.893 83.9805C132.402 80.2787 131.106 76.2516 128 74.9857C124.893 73.7199 121.152 75.6947 119.644 79.3965C118.179 82.9908 119.358 86.8914 122.271 88.2737C122.075 88.6323 121.78 88.9267 121.421 89.1216C120.79 89.4162 122.841 89.7 122.841 89.7C122.843 89.3135 122.909 88.93 123.034 88.5643C126.033 89.4432 129.464 87.4868 130.893 83.9805Z" fill="white"/>
<path opacity="0.2" d="M120.243 82.8331C120.312 81.2349 121.277 79.9664 122.431 79.9099C122.382 79.9031 122.331 79.8983 122.28 79.8961C121.06 79.8432 120.012 81.1522 119.94 82.8199C119.87 84.4391 120.745 85.801 121.913 85.9273C121.892 86.0484 120.173 84.4496 120.243 82.8331Z" fill="white"/>
<path d="M89.323 54.4413L89.0107 54.061C89.6254 53.5564 89.6545 50.4374 89.3471 48.7459C89.1338 47.5724 89.1013 46.5661 89.2478 45.6695C89.4811 44.242 90.165 43.185 91.2806 42.528C93.5949 41.165 94.9825 37.4258 94.9962 37.3882L95.4584 37.557C95.3999 37.7172 93.9976 41.4987 91.5303 42.9519C89.8902 43.9179 89.3185 45.8377 89.8311 48.6579C90.0727 49.9869 90.2762 53.6586 89.323 54.4413Z" fill="#D4D5E0"/>
<path d="M102.169 35.5474C103.678 31.8456 102.382 27.8185 99.276 26.5527C96.1695 25.2869 92.4284 27.2616 90.92 30.9635C89.4554 34.5577 90.6343 38.4583 93.5474 39.8407C93.3516 40.1992 93.0565 40.4937 92.6975 40.6886C92.0666 40.9832 94.1169 41.2669 94.1169 41.2669C94.1199 40.8804 94.1853 40.4969 94.3106 40.1313C97.3089 41.0101 100.741 39.0538 102.169 35.5474Z" fill="white"/>
<path opacity="0.2" d="M91.5192 34.4C91.5885 32.8019 92.5536 31.5333 93.7078 31.4768C93.658 31.47 93.6076 31.4652 93.5567 31.463C92.3365 31.4101 91.2887 32.7191 91.2163 34.3868C91.1461 36.006 92.0213 37.3679 93.1891 37.4942C93.1684 37.6153 91.4491 36.0165 91.5192 34.4Z" fill="white"/>
</g>
<defs>
<clipPath id="clip0">
<rect width="164.683" height="125" fill="white"/>
</clipPath>
</defs>
</svg>
