<svg width="59" height="35" viewBox="0 0 59 35" fill="none" xmlns="http://www.w3.org/2000/svg">
<g filter="url(#filter0_d)">
<path d="M15.0306 18.2229V20H4.7558V18.611L10.5775 12.9935C11.2856 12.3126 11.7623 11.7271 12.0074 11.2368C12.2525 10.733 12.3751 10.2291 12.3751 9.72523C12.3751 8.97624 12.1095 8.39747 11.5784 7.98893C11.0609 7.56678 10.3119 7.3557 9.33144 7.3557C7.75176 7.3557 6.53295 7.87318 5.67501 8.90815L4.28598 7.70296C4.84432 7.02206 5.57288 6.49096 6.47167 6.10965C7.38407 5.72835 8.39861 5.5377 9.51529 5.5377C11.0133 5.5377 12.2048 5.89857 13.09 6.62033C13.9752 7.32846 14.4178 8.29534 14.4178 9.52096C14.4178 10.2836 14.2543 11.0053 13.9275 11.6862C13.6007 12.3671 12.9811 13.1433 12.0687 14.0149L7.69728 18.2229H15.0306ZM22.8192 11.3185C23.7588 11.3185 24.5963 11.4956 25.3317 11.8496C26.0807 12.2037 26.6662 12.7144 27.0884 13.3817C27.5106 14.0353 27.7216 14.7911 27.7216 15.6491C27.7216 16.5478 27.4969 17.3377 27.0475 18.0186C26.6118 18.6995 26.0058 19.2306 25.2295 19.6119C24.4669 19.9796 23.609 20.1634 22.6557 20.1634C20.7356 20.1634 19.2512 19.5438 18.2027 18.3046C17.1677 17.0653 16.6502 15.3086 16.6502 13.0344C16.6502 11.4411 16.9294 10.0861 17.4877 8.96943C18.0597 7.83914 18.8495 6.98801 19.8572 6.41606C20.8786 5.83048 22.0634 5.5377 23.4115 5.5377C24.1061 5.5377 24.7597 5.61259 25.3725 5.76239C25.9853 5.89857 26.5164 6.10284 26.9658 6.3752L26.1896 7.96851C25.5087 7.51911 24.5963 7.29442 23.4524 7.29442C21.968 7.29442 20.8037 7.75743 19.9594 8.68345C19.1151 9.59586 18.6929 10.9304 18.6929 12.6871C18.6929 12.905 18.6997 13.0753 18.7133 13.1978C19.1219 12.585 19.6802 12.122 20.3883 11.8088C21.1101 11.4819 21.9204 11.3185 22.8192 11.3185ZM22.574 18.5088C23.5137 18.5088 24.2763 18.2569 24.8619 17.753C25.4474 17.2492 25.7402 16.5751 25.7402 15.7308C25.7402 14.8864 25.4406 14.2192 24.8414 13.7289C24.2559 13.2251 23.466 12.9731 22.4719 12.9731C21.8319 12.9731 21.2599 13.0957 20.756 13.3408C20.2658 13.5859 19.8777 13.9196 19.5917 14.3417C19.3193 14.7639 19.1832 15.2337 19.1832 15.7512C19.1832 16.2551 19.3125 16.7181 19.5713 17.1402C19.8436 17.5488 20.2317 17.8824 20.7356 18.1411C21.2531 18.3863 21.8659 18.5088 22.574 18.5088Z" fill="white"/>
</g>
<rect x="30" y="5" width="1" height="16" rx="0.5" fill="#FFF493"/>
<g filter="url(#filter1_d)">
<path d="M35.379 11.0912C34.9585 11.0912 34.5506 11.0355 34.1553 10.924C33.7651 10.8074 33.451 10.658 33.2128 10.4755L33.6309 9.54826C33.8589 9.71548 34.13 9.84976 34.4441 9.9511C34.7583 10.0524 35.0725 10.1031 35.3866 10.1031C35.7363 10.1031 35.9947 10.0524 36.1619 9.9511C36.3291 9.84469 36.4127 9.70534 36.4127 9.53306C36.4127 9.40638 36.3621 9.3025 36.2607 9.22143C36.1644 9.13529 36.0378 9.06688 35.8807 9.01621C35.7287 8.96554 35.5209 8.9098 35.2574 8.84899C34.852 8.75272 34.5201 8.65644 34.2617 8.56016C34.0033 8.46389 33.7803 8.30934 33.5929 8.09652C33.4104 7.8837 33.3192 7.59994 33.3192 7.24524C33.3192 6.93614 33.4028 6.65745 33.5701 6.40915C33.7373 6.1558 33.9881 5.95564 34.3225 5.8087C34.662 5.66175 35.075 5.58828 35.5614 5.58828C35.9009 5.58828 36.2328 5.62881 36.5571 5.70989C36.8814 5.79096 37.1652 5.90751 37.4084 6.05952L37.0284 6.99441C36.5369 6.71572 36.0454 6.57637 35.5538 6.57637C35.2093 6.57637 34.9534 6.63211 34.7862 6.74359C34.624 6.85506 34.5429 7.00201 34.5429 7.18443C34.5429 7.36685 34.6367 7.50366 34.8242 7.59487C35.0167 7.68101 35.3081 7.76715 35.6983 7.85329C36.1036 7.94957 36.4355 8.04585 36.694 8.14212C36.9524 8.2384 37.1728 8.39041 37.3552 8.59817C37.5427 8.80592 37.6364 9.08715 37.6364 9.44185C37.6364 9.74588 37.5503 10.0246 37.378 10.2779C37.2108 10.5262 36.9575 10.7238 36.618 10.8708C36.2785 11.0177 35.8655 11.0912 35.379 11.0912ZM41.9818 9.85989H39.5115L39.0403 11H37.7785L40.15 5.67948H41.3661L43.7451 11H42.453L41.9818 9.85989ZM41.5941 8.925L40.7504 6.888L39.9068 8.925H41.5941ZM48.2039 8.23333C48.5079 8.32961 48.7461 8.49176 48.9184 8.71978C49.0907 8.94273 49.1768 9.21889 49.1768 9.54826C49.1768 10.0144 48.9944 10.3742 48.6296 10.6276C48.2698 10.8759 47.7428 11 47.0486 11H44.2971V5.67948H46.8966C47.5452 5.67948 48.0418 5.80363 48.3863 6.05192C48.736 6.30021 48.9108 6.63718 48.9108 7.06282C48.9108 7.32124 48.8474 7.5518 48.7208 7.75449C48.5991 7.95717 48.4269 8.11679 48.2039 8.23333ZM45.5208 6.60677V7.8609H46.7446C47.0486 7.8609 47.2792 7.80769 47.4362 7.70128C47.5933 7.59487 47.6719 7.43779 47.6719 7.23003C47.6719 7.02228 47.5933 6.86773 47.4362 6.76639C47.2792 6.65998 47.0486 6.60677 46.7446 6.60677H45.5208ZM46.9574 10.0727C47.2817 10.0727 47.5249 10.0195 47.6871 9.91309C47.8543 9.80668 47.9379 9.642 47.9379 9.41905C47.9379 8.9782 47.6111 8.75778 46.9574 8.75778H45.5208V10.0727H46.9574Z" fill="white"/>
</g>
<g filter="url(#filter2_d)">
<path d="M34.3037 19.0738C34.0126 19.0738 33.7441 19.0205 33.4981 18.9139C33.2562 18.8032 33.0574 18.6474 32.9016 18.4465L33.4551 17.7824C33.6888 18.0981 33.9552 18.2559 34.2545 18.2559C34.6604 18.2559 34.8633 18.0181 34.8633 17.5425V15.4947H33.3505V14.6953H35.8534V17.4872C35.8534 18.0161 35.7222 18.4137 35.4598 18.6802C35.1975 18.9426 34.8121 19.0738 34.3037 19.0738ZM38.75 19.0738C38.135 19.0738 37.6553 18.9037 37.311 18.5634C36.9707 18.2231 36.8005 17.7373 36.8005 17.1059V14.6953H37.7968V17.069C37.7968 17.8398 38.1166 18.2252 38.7561 18.2252C39.0677 18.2252 39.3055 18.1329 39.4695 17.9484C39.6335 17.7598 39.7155 17.4667 39.7155 17.069V14.6953H40.6994V17.1059C40.6994 17.7373 40.5272 18.2231 40.1828 18.5634C39.8425 18.9037 39.3649 19.0738 38.75 19.0738ZM41.6839 14.6953H42.6801V18.1883H44.8386V19H41.6839V14.6953ZM49.3433 14.6953V19H48.347V17.2351H46.3915V19H45.3952V14.6953H46.3915V16.3926H48.347V14.6953H49.3433ZM52.4465 19.0738C51.9996 19.0738 51.5958 18.9775 51.235 18.7848C50.8783 18.5921 50.5975 18.3276 50.3925 17.9915C50.1916 17.6512 50.0912 17.2699 50.0912 16.8476C50.0912 16.4254 50.1916 16.0461 50.3925 15.71C50.5975 15.3697 50.8783 15.1032 51.235 14.9105C51.5958 14.7178 51.9996 14.6215 52.4465 14.6215C52.8933 14.6215 53.2951 14.7178 53.6518 14.9105C54.0085 15.1032 54.2893 15.3697 54.4943 15.71C54.6993 16.0461 54.8018 16.4254 54.8018 16.8476C54.8018 17.2699 54.6993 17.6512 54.4943 17.9915C54.2893 18.3276 54.0085 18.5921 53.6518 18.7848C53.2951 18.9775 52.8933 19.0738 52.4465 19.0738ZM52.4465 18.2252C52.7006 18.2252 52.9302 18.1678 53.1352 18.053C53.3402 17.9341 53.5001 17.7701 53.6149 17.561C53.7338 17.3519 53.7932 17.1141 53.7932 16.8476C53.7932 16.5812 53.7338 16.3434 53.6149 16.1343C53.5001 15.9252 53.3402 15.7633 53.1352 15.6485C52.9302 15.5296 52.7006 15.4701 52.4465 15.4701C52.1923 15.4701 51.9627 15.5296 51.7577 15.6485C51.5527 15.7633 51.3908 15.9252 51.2719 16.1343C51.1571 16.3434 51.0997 16.5812 51.0997 16.8476C51.0997 17.1141 51.1571 17.3519 51.2719 17.561C51.3908 17.7701 51.5527 17.9341 51.7577 18.053C51.9627 18.1678 52.1923 18.2252 52.4465 18.2252Z" fill="white"/>
</g>
<g filter="url(#filter3_d)">
<path d="M22.37 30.0038H20.2176L19.7933 31H18.9693L20.9064 26.6953H21.6935L23.6368 31H22.8005L22.37 30.0038ZM22.1055 29.3765L21.2938 27.4947L20.4882 29.3765H22.1055ZM20.0823 25.5023H20.9863L21.8165 26.3448H21.1524L20.0823 25.5023ZM25.5187 31.0615C25.1866 31.0615 24.8648 31.0143 24.5532 30.9201C24.2457 30.8258 24.0018 30.7007 23.8214 30.5449L24.0982 29.9238C24.2744 30.0632 24.4897 30.178 24.7439 30.2682C25.0022 30.3543 25.2604 30.3973 25.5187 30.3973C25.8385 30.3973 26.0763 30.3461 26.2321 30.2436C26.392 30.1411 26.4719 30.0058 26.4719 29.8377C26.4719 29.7147 26.4268 29.6143 26.3366 29.5364C26.2505 29.4544 26.1398 29.3909 26.0045 29.3458C25.8692 29.3007 25.6848 29.2494 25.4511 29.192C25.1231 29.1141 24.8566 29.0362 24.6516 28.9583C24.4507 28.8804 24.2765 28.7595 24.1289 28.5955C23.9854 28.4274 23.9137 28.2019 23.9137 27.9191C23.9137 27.6813 23.9772 27.466 24.1043 27.2733C24.2355 27.0766 24.4302 26.9208 24.6885 26.806C24.9509 26.6912 25.2707 26.6338 25.6479 26.6338C25.9102 26.6338 26.1685 26.6666 26.4227 26.7322C26.6769 26.7978 26.8962 26.8921 27.0807 27.0151L26.8286 27.6362C26.64 27.5255 26.4432 27.4414 26.2382 27.384C26.0332 27.3266 25.8344 27.2979 25.6417 27.2979C25.326 27.2979 25.0903 27.3512 24.9345 27.4578C24.7828 27.5644 24.707 27.7059 24.707 27.8822C24.707 28.0051 24.75 28.1056 24.8361 28.1835C24.9263 28.2614 25.039 28.3229 25.1743 28.368C25.3096 28.4131 25.4941 28.4643 25.7278 28.5217C26.0476 28.5955 26.31 28.6734 26.515 28.7554C26.7199 28.8333 26.8942 28.9542 27.0377 29.1182C27.1853 29.2822 27.2591 29.5036 27.2591 29.7824C27.2591 30.0202 27.1935 30.2354 27.0623 30.4281C26.9352 30.6208 26.7404 30.7745 26.4781 30.8893C26.2157 31.0041 25.8959 31.0615 25.5187 31.0615ZM30.932 26.6953V31H30.1326V27.3656H29.2225V26.6953H30.932ZM35.6233 30.0222H34.8608V31H34.0859V30.0222H31.7245V29.4688L33.8461 26.6953H34.7009L32.7023 29.3458H34.1105V28.4787H34.8608V29.3458H35.6233V30.0222ZM40.0923 26.6953V31H39.2928V29.1551H37.0667V31H36.2672V26.6953H37.0667V28.4725H39.2928V26.6953H40.0923Z" fill="white"/>
</g>
<defs>
<filter id="filter0_d" x="0.786133" y="2.03772" width="30.4357" height="21.6257" filterUnits="userSpaceOnUse" color-interpolation-filters="sRGB">
<feFlood flood-opacity="0" result="BackgroundImageFix"/>
<feColorMatrix in="SourceAlpha" type="matrix" values="0 0 0 0 0 0 0 0 0 0 0 0 0 0 0 0 0 0 127 0"/>
<feOffset/>
<feGaussianBlur stdDeviation="1.75"/>
<feColorMatrix type="matrix" values="0 0 0 0 1 0 0 0 0 0.956863 0 0 0 0 0.576471 0 0 0 0.5 0"/>
<feBlend mode="normal" in2="BackgroundImageFix" result="effect1_dropShadow"/>
<feBlend mode="normal" in="SourceGraphic" in2="effect1_dropShadow" result="shape"/>
</filter>
<filter id="filter1_d" x="29.7129" y="2.08826" width="22.964" height="12.5029" filterUnits="userSpaceOnUse" color-interpolation-filters="sRGB">
<feFlood flood-opacity="0" result="BackgroundImageFix"/>
<feColorMatrix in="SourceAlpha" type="matrix" values="0 0 0 0 0 0 0 0 0 0 0 0 0 0 0 0 0 0 127 0"/>
<feOffset/>
<feGaussianBlur stdDeviation="1.75"/>
<feColorMatrix type="matrix" values="0 0 0 0 1 0 0 0 0 0.956863 0 0 0 0 0.576471 0 0 0 0.5 0"/>
<feBlend mode="normal" in2="BackgroundImageFix" result="effect1_dropShadow"/>
<feBlend mode="normal" in="SourceGraphic" in2="effect1_dropShadow" result="shape"/>
</filter>
<filter id="filter2_d" x="29.4014" y="11.1215" width="28.9002" height="11.4523" filterUnits="userSpaceOnUse" color-interpolation-filters="sRGB">
<feFlood flood-opacity="0" result="BackgroundImageFix"/>
<feColorMatrix in="SourceAlpha" type="matrix" values="0 0 0 0 0 0 0 0 0 0 0 0 0 0 0 0 0 0 127 0"/>
<feOffset/>
<feGaussianBlur stdDeviation="1.75"/>
<feColorMatrix type="matrix" values="0 0 0 0 1 0 0 0 0 0.956863 0 0 0 0 0.576471 0 0 0 0.5 0"/>
<feBlend mode="normal" in2="BackgroundImageFix" result="effect1_dropShadow"/>
<feBlend mode="normal" in="SourceGraphic" in2="effect1_dropShadow" result="shape"/>
</filter>
<filter id="filter3_d" x="15.4692" y="22.0023" width="28.123" height="12.5592" filterUnits="userSpaceOnUse" color-interpolation-filters="sRGB">
<feFlood flood-opacity="0" result="BackgroundImageFix"/>
<feColorMatrix in="SourceAlpha" type="matrix" values="0 0 0 0 0 0 0 0 0 0 0 0 0 0 0 0 0 0 127 0"/>
<feOffset/>
<feGaussianBlur stdDeviation="1.75"/>
<feColorMatrix type="matrix" values="0 0 0 0 1 0 0 0 0 0.956863 0 0 0 0 0.576471 0 0 0 0.5 0"/>
<feBlend mode="normal" in2="BackgroundImageFix" result="effect1_dropShadow"/>
<feBlend mode="normal" in="SourceGraphic" in2="effect1_dropShadow" result="shape"/>
</filter>
</defs>
</svg>
