<svg width="169" height="60" viewBox="0 0 169 60" fill="none" xmlns="http://www.w3.org/2000/svg">
<g filter="url(#filter0_d)">
<path d="M40.7369 38.4061C40.6265 38.4061 40.461 38.4613 40.3506 38.5716C40.2402 38.6268 40.0746 38.7372 39.9643 38.7924C39.6883 38.958 39.3572 39.1235 39.0812 39.2891C38.5293 39.6202 37.9774 39.8962 37.3703 40.1721C36.8184 40.5033 36.2113 40.7792 35.6042 41.0552C34.9971 41.276 34.3901 41.5519 33.783 41.7727C33.1759 42.0486 32.5688 42.2694 31.9617 42.4901C31.3546 42.7109 30.7475 42.9317 30.0852 43.0972C29.4781 43.318 28.8158 43.5387 28.2088 43.7043C27.6017 43.8699 26.9394 44.0906 26.3323 44.2562C20.2614 45.9671 13.6937 47.0157 8.11953 49.8304C8.06434 49.8856 7.95396 49.9408 7.89877 49.9408L7.95396 49.8856C8.11953 49.6097 8.2851 49.3337 8.39548 49.0578C13.0866 40.6137 15.791 31.0106 18.3297 21.6834C18.4401 21.2971 18.5505 20.8556 18.6609 20.4141C18.7712 20.0277 18.9368 19.5862 19.0472 19.1447C19.1576 18.7584 19.2679 18.3168 19.3783 17.9305C19.4887 17.489 19.5991 17.0475 19.7095 16.6611C19.8198 16.2196 19.9302 15.7781 20.0406 15.3918C20.151 14.9502 20.2614 14.5639 20.3718 14.1224C20.5373 13.6809 20.6477 13.2945 20.7581 12.853C20.8685 12.4115 20.9788 12.0252 21.0892 11.5836C21.1996 11.1421 21.31 10.7558 21.4204 10.3143C21.5859 9.92793 21.6963 9.48641 21.8067 9.04489C21.9171 8.65856 22.0275 8.21704 22.193 7.77551C22.3034 7.38918 22.4138 6.94766 22.5242 6.56133C22.6345 6.11981 22.8001 5.73348 22.9105 5.29196C22.9657 5.0712 23.0209 4.85044 23.0761 4.68487C23.1313 4.5193 23.1864 4.35373 23.2416 4.18815C23.2968 4.07777 23.352 3.9674 23.4072 3.80182C23.4072 3.63625 23.4072 3.41549 23.2968 3.30511C23.1864 3.13954 23.0761 3.08435 22.9105 3.02916C22.9105 3.02916 22.9105 3.02916 22.8553 3.02916C22.7449 2.97397 22.5794 3.02916 22.469 3.13954C22.3586 3.19473 22.3034 3.30511 22.3034 3.47068C22.3034 3.52587 22.3034 3.58106 22.3034 3.69144C22.2482 3.80182 22.193 3.9674 22.193 4.07777C22.0826 4.35373 21.9723 4.68487 21.8619 4.96082V5.0712C21.31 6.78209 20.8685 8.4378 20.4269 10.1487C17.2811 21.7938 14.356 33.7701 9.33372 44.7529C8.34029 46.9605 7.23649 49.113 5.91193 51.155C5.41521 51.4861 4.97369 51.8173 4.58736 52.2036C4.53217 52.2588 4.53217 52.2588 4.53217 52.314C4.14584 52.7003 3.70432 53.0866 3.75951 53.6385C3.75951 53.8593 3.92508 54.0801 3.92508 54.0801C4.42179 54.5768 5.02888 54.1353 5.36002 53.7489C5.96712 53.1418 6.68459 51.8725 6.68459 51.8725C9.60967 49.9408 13.0866 48.8922 16.5084 47.8988C16.6188 47.8988 16.674 47.8988 16.7292 47.8436C17.3363 47.678 17.9434 47.5124 18.4953 47.4021C19.1024 47.2365 19.7095 47.0709 20.3166 46.9053C20.9237 46.7398 21.5307 46.5742 22.1378 46.4086C22.7449 46.2431 23.352 46.1327 24.0143 45.9671C24.6214 45.8015 25.2285 45.636 25.8356 45.4704C26.4427 45.3048 27.0498 45.0841 27.6569 44.9185C28.2639 44.7529 28.871 44.5874 29.4781 44.3666C30.0852 44.201 30.6923 43.9803 31.2442 43.8147C31.8513 43.5939 32.4584 43.3732 33.0103 43.2076C33.6174 42.9868 34.2245 42.7661 34.7764 42.4901C35.3835 42.2694 35.9354 42.0486 36.4873 41.7727C37.0392 41.5519 37.5911 41.276 38.143 41C38.6949 40.724 39.2468 40.4481 39.7987 40.117C39.9643 40.0066 40.185 39.8962 40.4058 39.7858C40.5714 39.6202 40.7921 39.5651 40.9577 39.3995C41.1233 39.3443 41.1784 39.2891 41.2336 39.1235C41.2888 39.0132 41.2888 38.8476 41.1784 38.7372C41.1233 38.5716 40.9577 38.4613 40.7369 38.4061ZM32.9486 30.845C32.6175 30.9002 32.3967 31.0658 32.176 31.2313C31.8448 31.4521 31.5137 31.6729 31.1826 31.9488C30.7962 32.2248 30.3547 32.4455 29.9684 32.7215C29.5269 32.9974 29.0853 33.2182 28.6438 33.4389C27.816 33.8805 26.9329 34.2116 25.9947 34.4324C25.222 34.5979 24.1734 34.8187 23.4007 34.2668C22.904 33.8805 22.7937 33.2182 22.7937 33.2182C24.4494 32.887 26.1603 31.6729 27.0433 30.0172C27.3192 29.5756 27.54 29.0237 27.3744 28.4718C27.2089 27.9199 26.657 27.5888 26.1051 27.5336C25.7187 27.5336 25.3876 27.644 25.1116 27.8095C23.18 28.6926 21.0276 31.3969 21.9658 33.8253C22.5177 35.3706 24.063 35.7017 25.3876 35.5914C25.6083 35.5362 25.8291 35.5362 26.0499 35.481C26.9329 35.3154 27.816 35.0395 28.6438 34.6531C29.4717 34.2668 30.2443 33.8253 31.017 33.3286C31.6793 32.887 32.2312 32.4455 32.8935 32.0592C33.059 31.9488 33.1694 31.8936 33.2798 31.7281C33.3902 31.6729 33.5005 31.5073 33.5005 31.3417C33.5005 31.0658 33.2246 30.845 32.9486 30.845ZM23.0144 32.9422C23.0144 32.9422 23.0144 32.9422 23.0696 32.9422C23.0696 32.887 23.0696 32.8319 23.0144 32.9422ZM24.0078 29.962C24.6149 29.2997 25.3324 28.5822 26.1603 28.5822C26.6018 28.5822 26.4362 28.803 26.3258 29.0237C25.9947 30.2931 24.8357 31.1761 23.6215 31.7832C23.2904 32.004 22.8488 32.1144 22.8488 32.1144C23.0144 31.3417 23.4559 30.5691 24.0078 29.962ZM38.603 31.3969C38.4375 31.2313 38.2167 31.1761 38.0511 31.1761C37.8856 31.1761 37.72 31.2313 37.5544 31.2313C37.2785 31.2865 37.0025 31.3417 36.6714 31.3417C35.8987 31.3417 35.0709 31.2313 34.2982 30.9554C34.1878 30.9002 34.0775 30.6794 33.9671 30.5691C33.9119 30.5139 33.8567 30.5139 33.8015 30.4587C33.6359 30.4587 33.4704 30.4587 33.36 30.5691C33.2496 30.5691 33.1944 30.6794 33.1392 30.7346C32.9185 30.9554 32.6977 31.2865 32.5321 31.6177C32.3666 31.8936 32.201 32.2248 32.0906 32.5559C31.7595 33.2734 31.5387 33.9908 31.3731 34.7635C31.3179 34.9843 31.2628 35.2602 31.2076 35.5362C31.1524 36.3088 31.0972 37.3023 31.7043 38.0197C32.3666 38.9028 33.4152 38.5716 33.9119 37.9645C35.2364 36.5848 35.5676 34.322 34.9053 32.3351C34.9053 32.2248 34.9053 32.2248 34.8501 32.1696C34.8501 32.1696 35.3468 32.28 35.7332 32.3351C36.3402 32.3903 36.9473 32.3903 37.5544 32.3351C37.7752 32.28 37.996 32.28 38.2167 32.1696C38.3823 32.1144 38.5479 32.0592 38.6582 31.8936C38.7686 31.7281 38.7134 31.5073 38.603 31.3969ZM33.1944 37.1919C32.8633 37.5782 32.4769 37.523 32.3114 37.2471C32.3114 37.1919 32.3114 37.1919 32.3114 37.1367C32.3114 37.1367 32.2562 37.0815 32.2562 37.0263C32.2562 36.9711 32.2562 36.9159 32.2562 36.8607C32.2562 36.8055 32.201 36.7504 32.201 36.6952C32.0354 34.9291 32.7529 33.2734 33.6359 31.8384C33.6911 31.7832 33.8567 32.2248 33.9671 32.5007C34.519 34.2116 34.243 36.0329 33.1944 37.1919ZM48.6339 31.0658C48.5787 30.9554 48.4131 30.845 48.3027 30.7898C48.0268 30.6794 47.7508 30.9002 47.5301 31.0106C47.2541 31.2313 46.923 31.4521 46.5918 31.6177C45.9295 31.9488 44.9913 32.4455 44.1083 32.004C43.8323 31.8936 43.6116 31.6729 43.446 31.3969C43.1148 30.7898 43.0045 30.1275 43.0597 29.4653C43.0597 28.6926 43.2804 27.9199 43.3908 27.1473C43.3908 26.9817 43.3908 26.8161 43.2804 26.6506C43.2252 26.4298 43.0045 26.3194 42.8389 26.3746C42.6181 26.3746 42.3974 26.485 42.287 26.7057C42.1766 26.8713 42.0662 27.0369 42.011 27.2576C41.9007 27.4784 41.7903 27.644 41.6799 27.8647C41.5695 28.0855 41.4591 28.3615 41.3488 28.5822C40.9624 29.2997 40.6313 30.0723 40.3001 30.845C39.9138 31.5625 39.6379 32.3351 39.3067 33.1078C38.9756 33.8805 38.6444 34.6531 38.3685 35.4258C38.5892 33.5493 38.81 31.6729 39.2515 29.8516C39.2515 29.7964 39.3067 29.686 39.3067 29.5756C39.4171 29.4101 39.5275 29.2445 39.5275 29.0789C39.4723 28.803 39.3619 28.5822 39.1412 28.527C38.9756 28.4166 38.6996 28.4166 38.5892 28.5822C38.5341 28.6374 38.4789 28.6926 38.4789 28.803C38.3133 29.1341 38.2581 29.5204 38.1477 29.9068C38.0373 30.2931 37.9822 30.6794 37.927 31.0658C37.7614 31.8936 37.651 32.7215 37.5406 33.5493C37.4303 34.4324 37.3199 35.2602 37.2647 36.0881C37.2647 36.364 37.2095 36.5848 37.2095 36.8055C37.1543 37.2471 37.0439 37.6886 37.0439 38.1301C36.9887 38.4061 37.0439 38.682 37.1543 38.9028C37.3199 39.1787 37.7062 39.3995 37.9822 39.1787C38.0925 39.1787 38.0925 39.0683 38.1477 38.958C38.2029 38.9028 38.2581 38.7924 38.3133 38.7372C38.3685 38.5716 38.4237 38.3509 38.4789 38.1853C38.6444 37.6886 38.81 37.2471 39.0308 36.7504C39.3067 35.9225 39.6379 35.0947 39.969 34.322C40.3001 33.4941 40.6313 32.6663 40.9624 31.8936C41.128 31.5073 41.3488 31.121 41.5143 30.6794C41.5695 30.5139 41.6799 30.2931 41.7903 30.1275C41.8455 30.0172 41.8455 29.9068 41.9007 29.8516C41.9558 29.7964 41.9558 29.7412 42.011 29.686C42.011 29.6308 42.0662 29.5756 42.0662 29.5204C42.0662 30.845 42.5078 32.2248 43.5564 32.8319C45.1569 33.7701 46.923 32.7767 48.3579 31.7281C48.4683 31.6729 48.5787 31.5625 48.5787 31.4521C48.6339 31.3417 48.6339 31.2313 48.6339 31.0658ZM54.2486 31.8936C54.2486 31.8936 54.2486 31.8384 54.1934 31.7832L54.1382 31.7281C54.083 31.6729 53.9726 31.6177 53.8623 31.6177C53.7519 31.6177 53.6415 31.6177 53.5311 31.6177C53.4207 31.6729 53.3656 31.7832 53.2552 31.8384C53.2 31.8936 53.1448 31.8936 53.1448 31.9488C52.924 32.1696 52.7033 32.3351 52.4273 32.5007C52.2066 32.7215 51.9858 32.9422 51.765 33.1078C51.4891 33.3286 51.2683 33.4941 50.9924 33.6597C50.7716 33.8805 50.4957 34.046 50.2749 34.2116C49.6126 34.6531 49.0055 35.1498 48.2881 35.3706C47.681 35.5362 47.8465 35.0947 47.8465 34.8187C47.9017 33.4389 48.3984 32.1144 48.9503 30.9002C49.0055 30.7898 49.0607 30.7346 49.0607 30.6242C49.1159 30.5691 49.1711 30.5139 49.1711 30.4587C49.2263 30.3483 49.3367 30.2379 49.2815 30.1275C49.2263 30.0723 49.2263 30.0172 49.1711 29.962C49.1159 29.9068 49.0607 29.7964 48.9503 29.7412C48.8952 29.686 48.7848 29.686 48.7296 29.686C48.6192 29.686 48.4536 29.7412 48.3984 29.7964C48.2881 29.9068 48.2329 29.962 48.1777 30.0723C48.1777 30.1275 48.1225 30.1827 48.0673 30.2379C48.0673 30.2931 48.0121 30.3483 48.0121 30.4035C47.9569 30.5139 47.9017 30.5691 47.9017 30.6242C47.7913 30.7898 47.7362 30.9002 47.681 31.0658C47.5706 31.3417 47.4602 31.6729 47.3498 31.9488C47.2946 32.28 47.1843 32.6111 47.1291 32.887C47.0187 33.2182 46.9635 33.5493 46.9083 33.8805C46.8531 34.4324 46.7427 34.9843 46.9083 35.5362C47.1843 36.3088 48.0673 36.5296 48.6744 36.364C50.5509 35.8121 52.041 34.322 53.5311 32.9974C53.9175 32.6663 54.4694 32.3351 54.2486 31.8936ZM50.3853 26.8161C50.882 26.9817 51.2131 26.209 51.4339 25.5468C51.4891 25.5468 51.4891 25.4916 51.4891 25.4364C51.5443 25.1052 51.2683 24.8293 50.9372 24.8293C50.4957 24.8293 50.3853 25.3812 50.0541 25.9883C49.8886 26.3194 50.0541 26.7609 50.3853 26.8161ZM63.4873 30.845C62.9906 30.6794 62.6043 31.2865 62.3284 31.5625C61.942 31.8936 61.5557 32.2248 61.1694 32.5559C60.2311 33.3286 59.2377 34.046 58.0787 34.4324C56.9197 34.7635 55.5951 34.5427 54.9881 33.5493C53.8291 31.6177 54.6569 29.3549 56.0919 27.9199C56.699 27.3128 57.4164 26.7609 58.2443 26.8161C58.6306 26.8161 58.741 27.2576 58.741 27.5336C58.741 27.6992 58.6858 27.8647 58.6306 28.0303C58.5754 28.1407 58.465 28.2511 58.4098 28.4166C58.3547 28.6374 58.465 28.9685 58.741 29.0237C59.0169 29.1341 59.2929 28.9685 59.4585 28.7478C59.6792 28.4166 59.7344 27.9751 59.7896 27.644C59.7896 27.2576 59.6792 26.8161 59.4585 26.485C59.1825 25.9883 58.6306 25.7675 58.0787 25.7675C56.7541 25.7675 55.7055 26.6506 54.8777 27.644C53.6083 29.2445 52.8908 31.7832 54.0498 33.8253C54.8225 35.2602 56.4782 35.8121 57.8579 35.5362C57.9683 35.5362 58.0787 35.481 58.1891 35.481C59.2929 35.205 60.2863 34.6531 61.1694 33.9357C61.8868 33.4389 62.5491 32.7767 63.2114 32.1696C63.4322 32.004 63.7081 31.7832 63.8185 31.5073C63.9289 31.2865 63.7081 30.9554 63.4873 30.845ZM97.4211 31.8384C97.09 31.6729 96.814 31.8384 96.5381 32.004C96.1517 32.2248 95.7654 32.3903 95.3239 32.6111C94.6616 32.9422 93.9993 33.2734 93.2818 33.6045C92.6196 33.9908 91.9573 34.322 91.295 34.7083C90.6327 35.0395 89.9704 35.4258 89.3082 35.8121C88.977 35.9777 88.6459 36.1985 88.3147 36.364C88.1492 36.4744 87.9836 36.5848 87.818 36.6952C87.7628 36.6952 87.3213 36.9159 87.3213 36.9711C86.7142 35.0395 84.8929 33.8253 83.0165 33.2734C79.0428 32.2248 75.2347 32.7767 71.3714 32.5007C69.9916 32.3903 68.3911 32.1696 67.4528 31.1761C66.0179 29.6308 66.8458 27.2025 67.7288 25.326C70.0468 20.3589 73.8549 16.2748 77.7734 12.4667C80.4777 9.87274 83.2924 7.05804 86.8798 5.84386C87.7076 5.56791 88.6459 5.29196 89.4737 5.67829C90.5775 6.11981 90.5223 7.44437 90.3568 8.4378C90.136 9.59679 89.8049 10.7006 89.3633 11.8044C88.9218 13.0738 88.3699 14.288 87.7628 15.4469C87.1005 16.6059 86.3831 17.8201 85.6104 18.9239C85.2241 19.4758 84.8378 20.0277 84.4514 20.5796C84.1203 21.0212 83.7891 21.4627 83.4028 21.849C83.2372 22.0146 83.0165 22.2353 82.9613 22.5113C82.9061 22.7321 83.182 22.9528 83.4028 23.008C83.8995 23.0632 84.2859 22.5113 84.617 22.1802C84.9481 21.7386 85.2241 21.2971 85.5552 20.8556C85.9416 20.3037 86.2727 19.7518 86.659 19.1447C88.4251 16.2748 90.1912 13.2393 91.0742 9.87274C91.4054 8.71375 91.7917 7.27881 91.1294 5.95424C90.6327 4.96082 89.5841 4.4641 88.5355 4.4641C88.2044 4.4641 87.8732 4.5193 87.5421 4.57449C84.1755 5.23677 81.4712 7.49956 79.0428 9.76236C77.1663 11.5284 75.345 13.2945 73.6341 15.171C70.8746 18.2616 68.2255 21.4627 66.625 25.2156C65.9075 26.8161 65.2452 28.803 66.0179 30.6794C66.7354 32.4455 68.7222 33.2734 70.5435 33.4389C74.462 33.8805 78.2701 33.3286 82.0782 34.1012C83.8995 34.4876 85.9416 35.5914 86.4383 37.4126C86.4383 37.4126 86.4383 37.4678 86.4383 37.523L86.2727 37.5782C83.2924 39.4547 80.4225 41.5519 77.7734 43.8699C75.0691 46.1879 72.5303 48.7266 70.7643 51.8173C69.8812 53.3074 69.1637 54.9631 69.826 56.3981C70.3227 57.3915 71.4265 57.7778 72.3648 57.6674C73.6893 57.5019 74.8483 56.7844 75.9521 56.0669C79.1532 53.9697 81.7471 51.155 83.8995 48.1195C86.0519 45.1945 87.8732 41.9382 87.5973 38.3509C87.5421 37.8542 87.5973 38.0197 87.5973 38.0197L87.7076 37.9645C88.3699 37.5782 89.0322 37.1919 89.6945 36.8055C90.3568 36.4192 91.0191 36.0329 91.6813 35.7017C92.3988 35.3154 93.0611 34.9843 93.7234 34.5979C94.3857 34.2668 95.1031 33.9357 95.7654 33.5493C96.2621 33.3286 96.814 33.0526 97.3107 32.7767C97.4211 32.7215 97.5315 32.6663 97.5867 32.5559C97.6971 32.5007 97.6971 32.3903 97.6971 32.28C97.6971 32.1144 97.5867 31.8936 97.4211 31.8384ZM86.2175 41.4415C85.1137 45.3048 82.575 48.5059 79.8154 51.3206C77.8838 53.3626 75.7866 55.3494 73.1374 56.3981C72.5855 56.6188 71.8129 56.95 71.1506 56.5084C70.3779 56.0669 70.5435 55.0735 70.7643 54.356C71.2058 52.8107 72.144 51.5413 73.0822 50.2719C76.7248 45.5256 81.4712 41.883 86.4935 38.682C86.5486 38.682 86.6038 38.682 86.6038 38.682C86.6038 39.6202 86.4383 40.5585 86.2175 41.4415ZM114.379 31.4521C113.882 31.2313 113.551 31.7832 113.275 32.0592C111.84 33.5493 110.405 34.9843 108.805 36.364C108.584 36.5296 108.363 36.6952 108.142 36.9159C107.48 37.4126 106.818 38.1301 105.935 38.1853C105.383 38.2405 105.107 37.799 105.052 37.3574C105.052 37.1367 105.052 36.9159 105.052 36.7504C105.052 36.0329 105.162 35.3706 105.328 34.7635C105.548 34.1012 105.769 33.4941 105.879 32.8319C105.935 32.6663 105.935 32.5007 105.824 32.3351C105.769 32.2248 105.603 32.1696 105.493 32.1144C105.383 32.1144 105.328 32.1144 105.217 32.1696C104.886 32.28 104.72 32.6111 104.5 32.887C104.389 33.0526 104.279 33.2182 104.113 33.4389C103.893 33.7701 103.672 34.1564 103.396 34.4876C102.734 35.481 102.071 36.4744 101.354 37.3574C100.636 38.2957 99.8085 39.1235 98.8703 39.841C98.5391 40.0618 98.0424 40.5033 97.4905 40.2825C96.5523 39.9514 96.7179 38.1853 96.8282 36.8607C97.2698 33.1078 98.5943 29.3549 100.968 26.485C101.961 25.2708 103.175 23.9462 104.776 23.8359C105.493 23.7807 106.045 24.2222 106.211 24.7741C106.211 24.8293 106.211 24.8845 106.211 24.8845C106.542 26.1538 106.211 27.3128 105.879 28.4718C105.824 28.6926 105.769 28.9134 105.659 29.1341C105.603 29.3549 105.493 29.5204 105.548 29.7964C105.548 29.962 105.714 30.1275 105.879 30.1827C106.1 30.2379 106.321 30.1827 106.431 30.0172C106.487 29.962 106.487 29.9068 106.542 29.8516C106.542 29.8516 106.542 29.7964 106.542 29.8516C106.542 29.7964 106.542 29.7412 106.542 29.7412C106.762 29.1341 106.928 28.527 107.094 27.9751C107.37 26.7057 107.701 25.05 106.762 23.7807C106.431 23.3391 105.99 23.008 105.493 22.8976C103.837 22.5113 102.347 23.5599 101.188 24.6637C98.7047 27.1473 97.1594 30.4587 96.3315 33.9357C96.0556 35.1498 95.8348 36.364 95.7796 37.5782C95.7244 38.7372 95.7244 39.9514 96.4971 40.7792C97.2146 41.5519 98.2632 41.4415 98.9807 41C99.0359 41 99.091 40.9448 99.2014 40.8896C101.409 39.5099 102.734 37.3574 104.169 35.2602V35.3154C104.003 36.3088 103.837 37.3574 104.334 38.2957C105.328 40.117 107.149 39.0132 108.253 38.1853C108.418 38.0197 108.639 37.8542 108.805 37.6886C109.853 36.8607 110.847 35.9777 111.785 35.0395C112.281 34.5979 112.778 34.1012 113.22 33.6597C113.551 33.2734 113.937 32.9422 114.268 32.6111C114.434 32.3903 114.71 32.1696 114.71 31.8936C114.71 31.7281 114.544 31.5625 114.379 31.4521ZM126.447 31.8384C126.171 31.5625 125.785 31.8384 125.785 31.8384C124.736 32.7767 123.743 33.7149 122.584 34.4876C122.418 34.5979 122.308 34.7083 122.142 34.7635C121.59 35.1498 120.928 35.6466 120.155 35.3706C119.382 35.0395 119.934 31.121 119.934 30.2379C119.934 29.3549 120.045 28.3615 119.493 27.7544C119.438 27.6992 119.382 27.644 119.382 27.5888C118.996 27.368 118.555 27.4784 118.223 27.6992C117.837 27.9751 117.561 28.4166 117.285 28.803C116.733 29.686 116.181 30.6242 115.74 31.5625C115.243 32.5007 114.802 33.4941 114.36 34.4876C114.305 34.5427 114.305 34.6531 114.25 34.7083V34.6531C114.471 33.3286 114.802 32.004 115.078 30.6794C115.298 29.5756 115.409 28.3615 115.795 27.2576C115.795 27.2025 115.85 27.2025 115.85 27.1473C115.85 27.0921 115.85 27.0369 115.85 26.9817C115.85 26.8713 115.85 26.7609 115.795 26.7057C115.685 26.5402 115.519 26.3746 115.354 26.3746C115.298 26.3746 115.298 26.3746 115.298 26.3746C115.133 26.4298 114.967 26.5402 114.857 26.6506C114.802 26.8161 114.747 26.9817 114.691 27.1473C114.636 27.368 114.581 27.5888 114.526 27.8095C114.471 28.0303 114.471 28.3063 114.415 28.527C113.863 31.1761 113.146 33.8805 112.925 36.64C112.925 36.9711 112.815 37.3023 112.98 37.5782C113.091 37.799 113.312 37.9094 113.422 37.9645C113.974 38.0749 114.195 37.4678 114.415 37.0263C115.574 34.3772 116.678 31.5073 118.389 29.1341C118.555 28.8582 118.831 28.5822 118.831 28.5822C119.107 30.0723 118.168 34.7083 119.107 35.8121C119.824 36.5296 120.928 36.5296 121.7 36.1985C123.577 35.4258 125.012 33.9357 126.502 32.6111C126.723 32.3903 126.668 32.0592 126.447 31.8384ZM145.362 32.6111C145.252 32.4455 145.031 32.3351 144.865 32.3351C144.479 32.3903 144.369 32.7215 144.258 32.9974C143.982 33.7701 143.596 34.5427 143.265 35.3154C142.823 36.3088 142.382 37.2471 141.885 38.2405C141.443 39.2339 140.947 40.1721 140.45 41.1104C139.898 42.0486 139.401 42.9868 138.85 43.9251C138.298 44.8081 137.691 45.6912 137.083 46.5742C136.476 47.4573 135.869 48.3403 135.207 49.1681C134.545 49.996 133.827 50.7687 133.11 51.5413C131.896 52.8659 130.626 54.0801 129.191 55.0735C128.032 55.791 126.763 56.5084 125.494 56.2877C124.666 56.1221 124.059 55.4598 123.672 54.7424C122.072 51.8725 122.789 48.837 123.286 46.0223C124.555 38.1301 127.26 30.7346 130.35 23.5599C131.123 21.7938 131.951 19.9725 132.779 18.1513C133.055 18.1513 133.386 18.1513 133.662 18.0961C134.269 18.0409 134.876 18.0409 135.483 17.9857C136.09 17.9305 136.697 17.8753 137.304 17.8753C137.911 17.8201 138.518 17.7649 139.125 17.7097C139.733 17.6546 140.34 17.5994 140.947 17.5442C141.554 17.489 142.161 17.4338 142.768 17.3786C143.375 17.3234 143.927 17.213 144.534 17.1578C144.7 17.1578 144.865 17.1027 144.976 16.9923C145.196 16.7715 145.031 16.33 144.755 16.1644C144.7 16.1644 144.644 16.1644 144.644 16.1644C144.534 16.1092 144.424 16.1644 144.313 16.1644C143.982 16.2196 143.651 16.2196 143.32 16.2748C143.044 16.33 142.713 16.33 142.382 16.3852C142.106 16.3852 141.775 16.4404 141.499 16.4404C140.781 16.5508 140.064 16.6059 139.346 16.6611C138.629 16.7163 137.911 16.7715 137.194 16.8267C136.421 16.8819 135.704 16.9371 134.986 16.9923C134.434 16.9923 133.882 17.0475 133.275 17.1027C134.655 14.288 136.09 11.5284 137.856 9.04489C137.966 9.04489 138.132 9.15527 138.242 9.10008C138.353 9.10008 138.408 8.9897 138.518 8.93451C138.684 8.76894 138.794 8.60337 138.905 8.38261C139.015 8.05147 139.015 7.49956 138.629 7.27881C138.518 7.22361 138.408 7.22361 138.353 7.22361C137.746 7.22361 137.359 7.8859 137.028 8.32742C136.256 9.43122 135.483 10.6454 134.821 11.8596C134.103 13.0186 133.496 14.2328 132.889 15.5021C132.613 16.054 132.337 16.6059 132.061 17.1578C131.62 17.213 131.123 17.213 130.626 17.2682C129.909 17.3234 129.191 17.3786 128.474 17.4338C127.701 17.489 126.984 17.5442 126.266 17.5994C125.549 17.6546 124.831 17.7097 124.114 17.8201C123.341 17.8753 122.624 17.9305 121.906 18.0409C121.189 18.1513 120.471 18.2065 119.754 18.3168C119.036 18.4272 118.319 18.5376 117.657 18.7584C117.546 18.8136 117.436 18.8136 117.381 18.9239C117.105 19.1447 117.27 19.5862 117.601 19.6966C117.712 19.7518 117.822 19.7518 117.932 19.7518C118.098 19.6966 118.208 19.6966 118.319 19.6414C118.871 19.4758 119.423 19.4206 119.974 19.3655C120.25 19.3103 120.526 19.2551 120.802 19.2551C121.465 19.1447 122.072 19.0895 122.679 19.0343C123.286 18.9239 123.893 18.8687 124.5 18.8136C125.107 18.7584 125.769 18.7032 126.377 18.648C126.984 18.5928 127.591 18.5376 128.198 18.4824C128.805 18.4272 129.412 18.372 130.019 18.372C130.571 18.3168 131.068 18.2616 131.564 18.2616C131.454 18.5928 131.288 18.8687 131.123 19.1999C127.425 27.4232 124.003 35.7017 122.458 44.5874C121.851 48.0643 120.968 52.2588 122.955 55.4598C124.003 57.1707 125.825 57.5571 127.26 57.1707C128.915 56.674 130.35 55.6254 131.62 54.5216C131.675 54.4664 131.73 54.4112 131.785 54.356C132.558 53.6385 133.331 52.9211 134.048 52.1484C134.765 51.4309 135.428 50.6583 136.035 49.8304C136.697 49.0578 137.304 48.2299 137.911 47.3469C138.463 46.519 139.07 45.636 139.567 44.8081C140.119 43.9251 140.616 42.9868 141.112 42.1038C141.609 41.1656 142.106 40.2825 142.547 39.3443C143.044 38.4061 143.486 37.4678 143.872 36.5296C144.093 36.0329 144.313 35.5914 144.534 35.0947C144.755 34.5979 144.976 34.1012 145.196 33.6045C145.307 33.2734 145.528 32.9422 145.362 32.6111ZM150.762 31.3969C150.596 31.2313 150.376 31.1761 150.21 31.1761C150.045 31.1761 149.879 31.2313 149.713 31.2313C149.437 31.2865 149.161 31.3417 148.83 31.3417C148.058 31.3417 147.23 31.2313 146.457 30.9554C146.347 30.9002 146.236 30.6794 146.126 30.5691C146.071 30.5139 146.016 30.5139 145.96 30.4587C145.795 30.4587 145.629 30.4587 145.519 30.5691C145.409 30.5691 145.353 30.6794 145.298 30.7346C145.077 30.9554 144.857 31.2865 144.691 31.6177C144.525 31.8936 144.36 32.2248 144.25 32.5559C143.918 33.2734 143.698 33.9908 143.532 34.7635C143.477 34.9843 143.422 35.2602 143.366 35.5362C143.311 36.3088 143.256 37.3023 143.863 38.0197C144.525 38.9028 145.574 38.5716 146.071 37.9645C147.395 36.5848 147.727 34.322 147.064 32.3351C147.064 32.2248 147.064 32.2248 147.009 32.1696C147.009 32.1696 147.506 32.28 147.892 32.3351C148.499 32.3903 149.106 32.3903 149.713 32.3351C149.934 32.28 150.155 32.28 150.376 32.1696C150.541 32.1144 150.707 32.0592 150.817 31.8936C150.928 31.7281 150.872 31.5073 150.762 31.3969ZM145.353 37.1919C145.022 37.5782 144.636 37.523 144.47 37.2471C144.47 37.1919 144.47 37.1919 144.47 37.1367C144.47 37.1367 144.415 37.0815 144.415 37.0263C144.415 36.9711 144.415 36.9159 144.415 36.8607C144.415 36.8055 144.36 36.7504 144.36 36.6952C144.194 34.9291 144.912 33.2734 145.795 31.8384C145.85 31.7832 146.016 32.2248 146.126 32.5007C146.678 34.2116 146.402 36.0329 145.353 37.1919ZM166.533 31.0658C166.367 30.9554 166.201 30.9002 166.036 30.9554C165.925 30.9554 165.815 31.0106 165.705 31.0658C165.594 31.121 165.484 31.1761 165.318 31.2313C165.098 31.3417 164.822 31.4521 164.546 31.6177C164.049 31.8384 163.552 32.1144 163 32.3351C162.78 32.5007 162.504 32.6111 162.283 32.7215C162.173 32.7767 161.51 33.1078 161.51 33.163C161.234 32.5007 160.517 32.1144 159.855 32.004C157.205 31.4521 154.336 32.887 151.686 32.2248C150.472 31.9488 150.859 30.845 151.3 30.0172C152.404 27.9199 154.115 25.8227 156.378 25.05C157.261 24.7741 158.309 25.05 158.42 25.8779C158.42 25.9883 158.42 26.1538 158.42 26.3194C158.42 26.9817 158.144 27.644 157.813 28.2511C157.647 28.5822 157.426 28.8582 157.15 29.0789C157.04 29.2445 156.874 29.3549 156.764 29.4653C156.598 29.5756 156.433 29.686 156.267 29.7412C156.046 29.7964 155.936 30.0172 155.991 30.2379C155.991 30.5691 156.322 30.7346 156.598 30.6794C156.819 30.6794 157.04 30.5691 157.205 30.4035C157.647 30.0723 158.033 29.686 158.42 29.2445C158.806 28.7478 159.192 28.1407 159.358 27.4784C159.579 26.7609 159.579 26.0435 159.303 25.326C158.972 24.3878 158.033 23.891 157.095 23.891C156.322 23.891 155.715 24.167 155.108 24.4981C153.232 25.5468 151.797 27.0921 150.693 28.9134C150.196 29.686 149.7 30.6242 149.92 31.6729C150.086 32.5559 150.914 33.163 151.797 33.2734C153.839 33.6045 155.826 32.9422 157.868 32.887C158.033 32.887 158.254 32.887 158.42 32.887C160.186 32.887 160.627 33.6045 160.627 33.6045C158.475 34.8187 156.433 36.1433 154.611 37.6334C152.349 39.5099 150.307 41.5519 149.037 44.1458C148.706 44.8081 148.209 45.5808 148.596 46.4086C148.982 47.1813 149.865 47.0709 150.472 46.7398C151.245 46.4086 151.907 45.9119 152.569 45.36C155.053 43.318 157.371 40.9448 159.358 38.3509C159.965 37.523 160.572 36.7504 161.014 35.8673C161.4 35.1498 161.621 34.2668 161.621 34.2668L161.731 34.2116C161.731 34.2116 161.786 34.2116 161.786 34.1564C161.841 34.1564 161.897 34.1012 161.952 34.1012C162.449 33.8253 163 33.5493 163.497 33.3286C163.994 33.0526 164.491 32.7767 165.042 32.5559C165.208 32.4455 165.429 32.3351 165.65 32.28C165.705 32.2248 165.815 32.1696 165.87 32.1696C165.981 32.1144 166.036 32.0592 166.146 32.004C166.257 31.9488 166.422 31.8936 166.533 31.8384C166.643 31.7281 166.698 31.6177 166.698 31.4521C166.698 31.3417 166.643 31.1761 166.533 31.0658ZM159.192 36.7504C157.371 39.2891 155.219 41.6071 152.901 43.7043C152.128 44.3666 151.41 44.9737 150.583 45.5256C150.251 45.6912 149.865 45.9671 149.534 45.9671C149.534 45.9671 149.534 45.8015 149.534 45.7464C149.865 44.4218 150.638 43.3732 151.466 42.3798C153.784 39.4547 156.819 37.0815 160.131 35.1498C160.186 35.0947 160.186 35.0947 160.241 35.0395C159.965 35.6466 159.579 36.1985 159.192 36.7504Z" fill="white"/>
</g>
<defs>
<filter id="filter0_d" x="0.726624" y="0.736314" width="167.486" height="59.2206" filterUnits="userSpaceOnUse" color-interpolation-filters="sRGB">
<feFlood flood-opacity="0" result="BackgroundImageFix"/>
<feColorMatrix in="SourceAlpha" type="matrix" values="0 0 0 0 0 0 0 0 0 0 0 0 0 0 0 0 0 0 127 0"/>
<feOffset dx="-0.757065"/>
<feGaussianBlur stdDeviation="1.1356"/>
<feColorMatrix type="matrix" values="0 0 0 0 1 0 0 0 0 0.956863 0 0 0 0 0.576471 0 0 0 1 0"/>
<feBlend mode="normal" in2="BackgroundImageFix" result="effect1_dropShadow"/>
<feBlend mode="normal" in="SourceGraphic" in2="effect1_dropShadow" result="shape"/>
</filter>
</defs>
</svg>
